<svg width="84" height="53" viewBox="0 0 84 53" fill="none" xmlns="http://www.w3.org/2000/svg">
<path d="M82.9999 49.8571L82.9999 3.57143C82.9999 2.15127 81.8806 1 80.4999 1L24.4999 1C23.1191 1 21.9999 2.15127 21.9999 3.57143L21.9999 49.8571C21.9999 51.2773 23.1191 52.4286 24.4999 52.4286L80.4999 52.4286C81.8806 52.4286 82.9999 51.2773 82.9999 49.8571Z" fill="#343434" stroke="black" stroke-width="0.18"/>
<path d="M21.9999 17.9714V14.8857L1.99992 14.8857V17.9714L21.9999 17.9714Z" fill="#B3B3B3"/>
<path d="M6.63086 12.1187L7.43652 9.44531H8.25195L7.01416 13H6.25L5.01709 9.44531H5.83008L6.63086 12.1187ZM11.3452 11.8159C11.3175 12.1984 11.1759 12.4995 10.9204 12.7192C10.6665 12.939 10.3312 13.0488 9.91455 13.0488C9.45882 13.0488 9.09993 12.8958 8.83789 12.5898C8.57747 12.2822 8.44727 11.8607 8.44727 11.3252V11.1079C8.44727 10.7661 8.50749 10.465 8.62793 10.2046C8.74837 9.94417 8.92008 9.74479 9.14307 9.60645C9.36768 9.46647 9.62809 9.39648 9.92432 9.39648C10.3345 9.39648 10.6649 9.50635 10.9155 9.72607C11.1662 9.9458 11.311 10.2542 11.3501 10.6514H10.6177C10.5998 10.4219 10.5355 10.2559 10.4248 10.1533C10.3158 10.0492 10.1489 9.99707 9.92432 9.99707C9.68018 9.99707 9.49707 10.085 9.375 10.2607C9.25456 10.4349 9.19271 10.7059 9.18945 11.0737V11.3423C9.18945 11.7264 9.24723 12.0072 9.36279 12.1846C9.47998 12.362 9.6639 12.4507 9.91455 12.4507C10.1408 12.4507 10.3092 12.3994 10.4199 12.2969C10.5322 12.1927 10.5965 12.0324 10.6128 11.8159H11.3452ZM14.6167 11.8159C14.589 12.1984 14.4474 12.4995 14.1919 12.7192C13.938 12.939 13.6027 13.0488 13.186 13.0488C12.7303 13.0488 12.3714 12.8958 12.1094 12.5898C11.849 12.2822 11.7188 11.8607 11.7188 11.3252V11.1079C11.7188 10.7661 11.779 10.465 11.8994 10.2046C12.0199 9.94417 12.1916 9.74479 12.4146 9.60645C12.6392 9.46647 12.8996 9.39648 13.1958 9.39648C13.606 9.39648 13.9364 9.50635 14.187 9.72607C14.4377 9.9458 14.5825 10.2542 14.6216 10.6514H13.8892C13.8713 10.4219 13.807 10.2559 13.6963 10.1533C13.5872 10.0492 13.4204 9.99707 13.1958 9.99707C12.9517 9.99707 12.7686 10.085 12.6465 10.2607C12.526 10.4349 12.4642 10.7059 12.4609 11.0737V11.3423C12.4609 11.7264 12.5187 12.0072 12.6343 12.1846C12.7515 12.362 12.9354 12.4507 13.186 12.4507C13.4123 12.4507 13.5807 12.3994 13.6914 12.2969C13.8037 12.1927 13.868 12.0324 13.8843 11.8159H14.6167Z" fill="#F80C0C"/>
<path d="M22.0001 28.2571V25.1714L2.00006 25.1714V28.2571L22.0001 28.2571Z" fill="#B3B3B3"/>
<path d="M4.31738 24V20.4453H5.41113C5.72363 20.4453 6.00277 20.5161 6.24854 20.6577C6.49593 20.7977 6.6888 20.9979 6.82715 21.2583C6.96549 21.5171 7.03467 21.8117 7.03467 22.1421V22.3057C7.03467 22.6361 6.96631 22.9299 6.82959 23.187C6.6945 23.4442 6.50326 23.6436 6.25586 23.7852C6.00846 23.9268 5.72933 23.9984 5.41846 24H4.31738ZM5.0498 21.0386V23.4116H5.40381C5.69027 23.4116 5.90918 23.318 6.06055 23.1309C6.21191 22.9437 6.28923 22.6759 6.29248 22.3276V22.1396C6.29248 21.7783 6.21761 21.5049 6.06787 21.3193C5.91813 21.1322 5.69922 21.0386 5.41113 21.0386H5.0498ZM9.52246 23.2676H8.23828L7.99414 24H7.21533L8.53857 20.4453H9.21729L10.5479 24H9.76904L9.52246 23.2676ZM8.43604 22.6743H9.32471L8.87793 21.3438L8.43604 22.6743ZM13.2627 21.0386H12.1738V24H11.4414V21.0386H10.3672V20.4453H13.2627V21.0386ZM15.3965 23.2676H14.1123L13.8682 24H13.0894L14.4126 20.4453H15.0913L16.4219 24H15.6431L15.3965 23.2676ZM14.3101 22.6743H15.1987L14.752 21.3438L14.3101 22.6743Z" fill="#019310"/>
<path d="M22.0001 38.5429V35.4571L2.00006 35.4571V38.5429H22.0001Z" fill="#B3B3B3"/>
<path d="M8.12988 33.5508C7.99805 33.7087 7.81169 33.8315 7.5708 33.9194C7.32992 34.0057 7.06299 34.0488 6.77002 34.0488C6.4624 34.0488 6.19222 33.9821 5.95947 33.8486C5.72835 33.7135 5.54932 33.5182 5.42236 33.2627C5.29704 33.0072 5.23275 32.7069 5.22949 32.3618V32.1201C5.22949 31.7653 5.2889 31.4585 5.40771 31.1997C5.52816 30.9393 5.70068 30.7407 5.92529 30.604C6.15153 30.4657 6.41602 30.3965 6.71875 30.3965C7.1403 30.3965 7.46989 30.4974 7.70752 30.6992C7.94515 30.8994 8.08594 31.1916 8.12988 31.5757H7.41699C7.38444 31.3722 7.31201 31.2233 7.19971 31.1289C7.08903 31.0345 6.93604 30.9873 6.74072 30.9873C6.4917 30.9873 6.30208 31.0809 6.17188 31.2681C6.04167 31.4552 5.97575 31.7336 5.97412 32.103V32.3301C5.97412 32.7028 6.04492 32.9844 6.18652 33.1748C6.32812 33.3652 6.53564 33.4604 6.80908 33.4604C7.08415 33.4604 7.28027 33.4019 7.39746 33.2847V32.6719H6.73096V32.1323H8.12988V33.5508ZM11.6162 34H10.8838L9.45801 31.6611V34H8.72559V30.4453H9.45801L10.8862 32.7891V30.4453H11.6162V34ZM12.2559 34V30.4453H13.3496C13.6621 30.4453 13.9412 30.5161 14.187 30.6577C14.4344 30.7977 14.6273 30.9979 14.7656 31.2583C14.904 31.5171 14.9731 31.8117 14.9731 32.1421V32.3057C14.9731 32.6361 14.9048 32.9299 14.7681 33.187C14.633 33.4442 14.4417 33.6436 14.1943 33.7852C13.9469 33.9268 13.6678 33.9984 13.3569 34H12.2559ZM12.9883 31.0386V33.4116H13.3423C13.6287 33.4116 13.8477 33.318 13.999 33.1309C14.1504 32.9437 14.2277 32.6759 14.231 32.3276V32.1396C14.231 31.7783 14.1561 31.5049 14.0063 31.3193C13.8566 31.1322 13.6377 31.0386 13.3496 31.0386H12.9883Z" fill="#533E3E"/>
<path d="M75.4999 31.8571V7.68571L41.9999 7.68571L41.9999 31.8571L75.4999 31.8571Z" fill="#D7F4EE" fill-opacity="0.63587" stroke="black" stroke-width="0.286366" stroke-linecap="round"/>
<path d="M81.9999 49.3848L81.9999 4.04373C81.9999 2.93079 81.1228 2.02857 80.0408 2.02857L24.9591 2.02857C23.8771 2.02857 22.9999 2.93079 22.9999 4.04373L22.9999 49.3848C22.9999 50.4978 23.8771 51.4 24.9591 51.4L80.0408 51.4C81.1228 51.4 81.9999 50.4978 81.9999 49.3848Z" stroke="#316691" stroke-width="1.8" stroke-linecap="round"/>
<path fill-rule="evenodd" clip-rule="evenodd" d="M82.9933 3.57143C82.9933 2.14686 81.8783 1 80.4933 1L67.9933 1V11.2857H64.0003V1L60.0072 1V11.2857L56.0142 11.2857V1L51.9864 1V11.2857L47.9934 11.2857V1L44.0003 1V11.2857H40.0073V1L36.0142 1V11.2857H31.9864V1L24.4864 1C23.1014 1 21.9864 2.14686 21.9864 3.57143L21.9864 49.8571C21.9864 51.2817 23.1014 52.4286 24.4864 52.4286L31.9864 52.4286V42.1429H36.0142V52.4286H40.0073V42.1429H44.0003V52.4286H47.9934V42.1429H51.9864L51.9864 52.4286H56.0142L56.0142 42.1429H60.0072L60.0072 52.4286L64.0003 52.4286L64.0003 42.1429H67.9933L67.9933 52.4286H80.4933C81.8783 52.4286 82.9933 51.2817 82.9933 49.8571L82.9933 37H72.9933V32.8929H82.9933V28.7857L72.9933 28.7857V24.6429L82.9933 24.6429V20.5357L72.9933 20.5357V16.4286H82.9933V3.57143ZM67.9933 16.4286V20.5357H64.0003V16.4286H67.9933ZM67.9933 24.6429V28.7857H64.0003V24.6429H67.9933ZM67.9933 32.8929V37H64.0003V32.8929H67.9933ZM60.0072 16.4286V20.5357H56.0142V16.4286L60.0072 16.4286ZM60.0072 24.6429V28.7857H56.0142V24.6429H60.0072ZM60.0072 32.8929V37H56.0142V32.8929H60.0072ZM51.9864 16.4286V20.5357H47.9934L47.9934 16.4286H51.9864ZM51.9864 24.6429V28.7857H47.9934V24.6429H51.9864ZM51.9864 32.8929V37H47.9934V32.8929H51.9864ZM44.0003 16.4286L44.0003 20.5357H40.0073L40.0073 16.4286H44.0003ZM44.0003 24.6429V28.7857H40.0073V24.6429H44.0003ZM44.0003 32.8929V37H40.0073V32.8929H44.0003ZM36.0142 16.4286L36.0142 20.5357L31.9864 20.5357L31.9864 16.4286H36.0142ZM36.0142 24.6429V28.7857L31.9864 28.7857V24.6429L36.0142 24.6429ZM36.0142 32.8929V37H31.9864V32.8929L36.0142 32.8929Z" fill="#48A1D1" stroke="black" stroke-width="0.18"/>
<path d="M68.9999 2.02857L80.4999 2.02857M81.9999 3.57143V14.3714V3.57143ZM80.4999 2.02857C81.3284 2.02857 81.9999 2.71933 81.9999 3.57143L80.4999 2.02857Z" stroke="white" stroke-opacity="0.706522" stroke-width="0.63" stroke-linecap="round"/>
<path d="M62.9999 2.02857L60.9999 2.02857" stroke="white" stroke-opacity="0.706522" stroke-width="0.63" stroke-linecap="round"/>
<path d="M54.9999 2.02857L52.9999 2.02857" stroke="white" stroke-opacity="0.706522" stroke-width="0.63" stroke-linecap="round"/>
<path d="M46.9999 2.02857L44.9999 2.02857" stroke="white" stroke-opacity="0.706522" stroke-width="0.63" stroke-linecap="round"/>
<path d="M38.9999 2.02857L36.9999 2.02857" stroke="white" stroke-opacity="0.706522" stroke-width="0.63" stroke-linecap="round"/>
<path d="M30.4999 2.02857L25.4999 2.02857" stroke="white" stroke-opacity="0.706522" stroke-width="0.63" stroke-linecap="round"/>
<path d="M22.9999 43.1714V49.8571M24.4999 51.4H30.9999H24.4999ZM24.4999 51.4C23.6715 51.4 22.9999 50.7092 22.9999 49.8571L24.4999 51.4Z" stroke="black" stroke-opacity="0.0652174" stroke-width="0.45" stroke-linecap="round"/>
<path d="M36.9999 51.4H38.9999" stroke="black" stroke-opacity="0.0652174" stroke-width="0.45" stroke-linecap="round"/>
<path d="M44.9999 51.4H46.9999" stroke="black" stroke-opacity="0.0652174" stroke-width="0.45" stroke-linecap="round"/>
<path d="M52.9999 51.4H54.9999" stroke="black" stroke-opacity="0.0652174" stroke-width="0.45" stroke-linecap="round"/>
<path d="M60.9999 51.4H62.9999" stroke="black" stroke-opacity="0.0652174" stroke-width="0.45" stroke-linecap="round"/>
</svg>
