<svg xmlns="http://www.w3.org/2000/svg" version="1.1" xmlns:xlink="http://www.w3.org/1999/xlink" xmlns:svgjs="http://svgjs.dev/svgjs" viewBox="0 0 196 196" preserveAspectRatio="xMidYMid slice"><line x1="165.97141807053652" y1="168.76142321575549" x2="174.82457996955458" y2="177.61458511477355" stroke-width="4.426580949509021" stroke="#ffd53d" transform="matrix(-0.02379241376015177,-0.49943360023877625,0.49943360023877625,-0.02379241376015177,87.9562742806899,262.41105210281466)"></line><line x1="39.90397237956787" y1="60.700336746201216" x2="50.3377617911835" y2="71.13412615781685" stroke-width="5.21689470580782" stroke="#ffd53d" transform="matrix(-0.018034599940326065,0.49967464735064593,-0.49967464735064593,-0.018034599940326065,78.8717725141936,44.56026829502417)"></line><line x1="84.23016864385349" y1="29.941445539563283" x2="93.32885426038672" y2="39.040131156096514" stroke-width="4.5493428082666165" stroke="#7257fa" transform="matrix(-0.42554046003370194,0.2625172696686931,-0.2625172696686931,-0.42554046003370194,135.61321729013926,25.861858747982538)"></line><line x1="126.3850677097185" y1="4.550471181142136" x2="135.48601007200278" y2="13.651413543426408" stroke-width="4.550471181142136" stroke="#7257fa" transform="matrix(-0.47107050405846834,0.16760841329151877,-0.16760841329151877,-0.47107050405846834,194.14080426780345,-8.557769741232939)"></line><line x1="4.4415070519621835" y1="130.73714455238945" x2="15.45771432887922" y2="141.7533518293065" stroke-width="5.508103638458518" stroke="#f9f9fc" transform="matrix(0.23970877914645178,0.438793460753596,-0.438793460753596,0.23970877914645178,67.34812805189196,99.2202469845073)"></line><line x1="92.8978070532983" y1="164.00505739357564" x2="103.10370495602703" y2="174.21095529630438" stroke-width="5.102948951364369" stroke="#ffd53d" transform="matrix(0.2709072792828904,-0.4202490285908369,0.4202490285908369,0.2709072792828904,0.3841638762040702,164.48013528125745)"></line><line x1="100.86959092190027" y1="68.89857022193951" x2="110.07940922122161" y2="78.10838852126085" stroke-width="4.604909149660668" stroke="#7257fa" transform="matrix(-0.4557867035314384,-0.20556867680642568,0.20556867680642568,-0.4557867035314384,138.43835992061435,128.68764054179655)"></line><line x1="181.18925926600974" y1="125.95903525958421" x2="190.35671736718587" y2="135.12649336076038" stroke-width="4.583729050588076" stroke="#ffd53d" transform="matrix(0.24068579822749953,-0.43825831028240797,0.43825831028240797,0.24068579822749953,83.84861531547955,180.53953213508356)"></line><line x1="161.13196949560398" y1="121.31239380476403" x2="171.17727175432702" y2="131.35769606348705" stroke-width="5.022651129361519" stroke="#7257fa" transform="matrix(0.4222411266627247,-0.26779176789922593,0.26779176789922593,0.4222411266627247,62.165823893601555,117.48603393885116)"></line><line x1="127.67094652785686" y1="142.99150006103662" x2="137.74183462524275" y2="153.0623881584225" stroke-width="5.035444048692952" stroke="#7257fa" transform="matrix(0.4658127919504855,-0.18170977644390432,0.18170977644390432,0.4658127919504855,43.99211271693261,103.18815007428358)"></line><line x1="64.21314909397492" y1="107.47633994597493" x2="73.73614651028564" y2="116.99933736228564" stroke-width="4.761498708155358" stroke="#f9f9fc" transform="matrix(-0.49995068384132135,0.007022373287938764,-0.007022373287938764,-0.49995068384132135,104.24674571899668,167.86685725630718)"></line><line x1="82.99483242440367" y1="101.05205206917603" x2="92.54206962471552" y2="110.59928926948788" stroke-width="4.773618600155926" stroke="#ffd53d" transform="matrix(-0.3905141991832899,-0.31224775457356585,0.31224775457356585,-0.3905141991832899,88.99944981124546,174.55760172502676)"></line><line x1="55.96799221098667" y1="180.46441613618424" x2="66.32504812019718" y2="190.82147204539473" stroke-width="5.178527954605258" stroke="#f9f9fc" transform="matrix(-0.49953733869581174,-0.021504586689957292,0.021504586689957292,-0.49953733869581174,87.69931600311082,279.69345735051286)"></line><line x1="64.87154236934127" y1="5.31205213529098" x2="74.95220002124297" y2="15.392709787192686" stroke-width="5.040328825950853" stroke="#ffd53d" transform="matrix(-0.48575150363631925,0.11851361404942022,-0.11851361404942022,-0.48575150363631925,105.09856834289042,7.095557259749484)"></line><line x1="6.382615997766683" y1="179.51717229840037" x2="17.371167798833106" y2="190.5057240994668" stroke-width="5.494275900533211" stroke="#7257fa" transform="matrix(0.3637737455472567,0.3430286606837973,-0.3430286606837973,0.3637737455472567,71.02061844684502,113.63502371875195)"></line><line x1="148.4107221435944" y1="56.06476296689553" x2="157.55975937264543" y2="65.21380019594659" stroke-width="4.5745186145255285" stroke="#f9f9fc" transform="matrix(-0.348032273924725,-0.3589896047335983,0.3589896047335983,-0.348032273924725,184.46016580079504,136.66381674222123)"></line><line x1="166.16118995019139" y1="145.39290100955313" x2="174.7904295149565" y2="154.02214057431823" stroke-width="4.314619782382557" stroke="#f9f9fc" transform="matrix(0.30847482747867894,-0.3935013097970568,0.3935013097970568,0.30847482747867894,58.978212231638736,170.6089746917159)"></line><line x1="166.8917706517956" y1="4.195951319939717" x2="175.28367329167506" y2="12.587853959819153" stroke-width="4.195951319939717" stroke="#ffd53d" transform="matrix(-0.35206409554959817,0.3550364384465958,-0.3550364384465958,-0.35206409554959817,234.3009984836889,-49.39598512083776)"></line><line x1="182.96825357714744" y1="163.63649384207724" x2="191.6560845257158" y2="172.32432479064562" stroke-width="4.343915474284188" stroke="#ffd53d" transform="matrix(-0.24567147619682975,-0.435483094715823,0.435483094715823,-0.24567147619682975,160.17679241819027,290.81968344046936)"></line><line x1="124.41806141772864" y1="103.27522616008989" x2="134.7470621342998" y2="113.60422687666104" stroke-width="5.164500358285579" stroke="#f9f9fc" transform="matrix(0.31068593873271927,-0.3917578939520798,0.3917578939520798,0.31068593873271927,46.84096121993059,125.51401642037808)"></line><line x1="80.54921845621588" y1="122.99046666804146" x2="90.74332560851299" y2="133.18457382033856" stroke-width="5.097053576148549" stroke="#f9f9fc" transform="matrix(-0.1745370176892183,-0.46854757437868944,0.46854757437868944,-0.1745370176892183,40.579620127556495,190.57288238288973)"></line><line x1="183.65430353278674" y1="7.0555977146379725" x2="191.88476784426223" y2="15.286062026113488" stroke-width="4.115232155737758" stroke="#ffd53d" transform="matrix(-0.24153855675151936,0.4377889052984247,-0.4377889052984247,-0.24153855675151936,238.01357837636283,-68.33440106829985)"></line><line x1="44.060002009306366" y1="4.415687178140331" x2="52.89137636558703" y2="13.247061534420993" stroke-width="4.415687178140331" stroke="#7257fa" transform="matrix(-0.47869148612984735,0.14441073750520816,-0.14441073750520816,-0.47869148612984735,72.95593383716988,6.058468508650166)"></line><line x1="22.209188099991557" y1="47.985206165142536" x2="32.25570689233045" y2="58.03172495748144" stroke-width="5.023259396169449" stroke="#f9f9fc" transform="matrix(0.030500771338083335,0.49906883588116574,-0.49906883588116574,0.030500771338083335,52.85671074433019,37.80080166414663)"></line><line x1="138.75272590656692" y1="123.75621815243603" x2="147.86905937093638" y2="132.87255161680554" stroke-width="4.558166732184745" stroke="#ffd53d" transform="matrix(0.4666255775753657,-0.17961227784440675,0.17961227784440675,0.4666255775753657,53.391527797400386,94.1800095336877)"></line><line x1="80.52460305889751" y1="182.38276193689495" x2="89.60276176763422" y2="191.46092064563163" stroke-width="4.539079354368354" stroke="#ffd53d" transform="matrix(-0.13738493490266662,-0.4807550100225582,0.4807550100225582,-0.13738493490266662,6.886537829128628,253.49688147836451)"></line><line x1="96.70270896709398" y1="87.74749709625867" x2="106.47695495313742" y2="97.52174308230211" stroke-width="4.887122993021719" stroke="#ffd53d" transform="matrix(-0.3531679273456692,-0.353938434045194,0.353938434045194,-0.3531679273456692,104.68114508178095,161.3067424588444)"></line><line x1="80.62114964847406" y1="72.47798251560211" x2="90.8066934891947" y2="82.66352635632275" stroke-width="5.092771920360319" stroke="#ffd53d" transform="matrix(-0.473121165767157,0.16172928770982187,-0.16172928770982187,-0.473121165767157,138.81245358087202,100.40866971786704)"></line><line x1="3.976687076382766" y1="155.30214143152543" x2="14.775467487767106" y2="166.10092184290974" stroke-width="5.39939020569217" stroke="#f9f9fc" transform="matrix(0.2842717680553945,0.4113265878674268,-0.4113265878674268,0.2842717680553945,72.81153549754549,111.16199233435361)"></line><line x1="164.21145718794676" y1="39.76958721256599" x2="173.77329748911015" y2="49.33142751372936" stroke-width="4.780920150581688" stroke="#7257fa" transform="matrix(-0.4990190081356788,-0.03130542316090568,0.03130542316090568,-0.4990190081356788,251.92811468351496,72.07243697393945)"></line><line x1="179.6701282944343" y1="183.58587140060197" x2="187.94621402736632" y2="191.861957133534" stroke-width="4.138042866466009" stroke="#f9f9fc" transform="matrix(-0.4591998717318325,-0.19782688846935986,0.19782688846935986,-0.4591998717318325,231.07602610303624,310.2889119990851)"></line><line x1="108.24936880456835" y1="146.81175656125126" x2="118.16938838170302" y2="156.73177613838592" stroke-width="4.960009788567338" stroke="#ffd53d" transform="matrix(0.4137789916128945,-0.28069012469236637,0.28069012469236637,0.4137789916128945,23.76487920382212,120.74855232518405)"></line><line x1="24.214280542060838" y1="95.09121805377181" x2="35.42457727662885" y2="106.30151478833982" stroke-width="5.605148367284008" stroke="#7257fa" transform="matrix(0.059631164660731,0.4964313892182935,-0.4964313892182935,0.059631164660731,78.03009773941407,79.8884235250329)"></line><line x1="84.71099279060726" y1="5.946372624554975" x2="95.22844459378177" y2="16.463824427729477" stroke-width="5.258725901587251" stroke="#ffd53d" transform="matrix(-0.4889517435035925,0.1045284292659039,-0.1045284292659039,-0.4889517435035925,135.13182122743424,7.279457738203622)"></line><line x1="43.479571372491264" y1="83.92447584662405" x2="54.29357754082565" y2="94.73848201495842" stroke-width="5.407003084167193" stroke="#f9f9fc" transform="matrix(-0.09501002207613791,0.4908901055277971,-0.4908901055277971,-0.09501002207613791,97.3832290559665,73.8209275233645)"></line><line x1="181.97206575350526" y1="69.04021823502528" x2="191.21658338425516" y2="78.28473586577518" stroke-width="4.622258815374952" stroke="#ffd53d" transform="matrix(-0.19786066525323245,-0.4591853189568981,0.4591853189568981,-0.19786066525323245,189.68927158138257,173.9187553666319)"></line><line x1="133.84618583038676" y1="163.62104325865945" x2="142.326316736851" y2="172.1011741651237" stroke-width="4.24006545323213" stroke="#f9f9fc" transform="matrix(0.3797972263896653,-0.32519850372767295,0.32519850372767295,0.3797972263896653,31.053292166626207,149.01337078004138)"></line><line x1="23.662398556439385" y1="142.93520864883934" x2="33.729642535231136" y2="153.00245262763107" stroke-width="5.033621989395877" stroke="#f9f9fc" transform="matrix(-0.13619616580271246,0.4810931348716588,-0.4810931348716588,-0.13619616580271246,103.79109821683154,154.3161634810746)"></line><line x1="99.96525159238662" y1="128.3875072725839" x2="109.82706049867853" y2="138.2493161788758" stroke-width="4.930904453145958" stroke="#f9f9fc" transform="matrix(0.2696069696013289,-0.4210844118966981,0.4210844118966981,0.2696069696013289,20.477113258173077,141.5449742030283)"></line><line x1="180.8610620857108" y1="87.50235906327539" x2="190.11781693384316" y2="96.75911391140771" stroke-width="4.628377424066165" stroke="#7257fa" transform="matrix(0.07148165411931055,-0.49486399457261715,0.49486399457261715,0.07148165411931055,126.63816417396814,177.33712549062423)"></line><line x1="4.446529262928539" y1="85.10349715200624" x2="15.525672143024895" y2="96.1826400321026" stroke-width="5.539571440048178" stroke="#f9f9fc" transform="matrix(0.2535537485540855,0.430941407379439,-0.430941407379439,0.2535537485540855,46.515939664634956,63.356755707428384)"></line><line x1="166.4446016980199" y1="59.146902754496416" x2="175.63492305192014" y2="68.33722410839664" stroke-width="4.595160676950113" stroke="#ffd53d" transform="matrix(-0.3116169595828299,-0.3910177368104329,0.3910177368104329,-0.3116169595828299,199.4143675849452,150.48475265514577)"></line><line x1="118.69806778721652" y1="123.7120417189967" x2="128.65637443165804" y2="133.67034836343822" stroke-width="4.979153322220765" stroke="#ffd53d" transform="matrix(0.42801669634056083,-0.25846026320057813,0.25846026320057813,0.42801669634056083,37.47974403069631,105.57486236826074)"></line><line x1="148.0920682337233" y1="4.089881730608072" x2="156.27183169493946" y2="12.269645191824216" stroke-width="4.089881730608072" stroke="#ffd53d" transform="matrix(-0.4255027253326481,0.26257842777823354,-0.26257842777823354,-0.4255027253326481,219.08361875256605,-28.299423166802214)"></line><line x1="158.72614520226105" y1="76.83578629424305" x2="168.54999310741854" y2="86.65963419940054" stroke-width="4.911923952578752" stroke="#7257fa" transform="matrix(0.0892526457448693,-0.49196947591038703,0.49196947591038703,0.0892526457448693,108.81555990945446,154.95644679519822)"></line><line x1="117.18302702422514" y1="61.15682963391344" x2="127.11606485520295" y2="71.08986746489124" stroke-width="4.966518915488899" stroke="#f9f9fc" transform="matrix(-0.3926089702998546,-0.3096097486192705,0.3096097486192705,-0.3926089702998546,149.63412244842735,129.9026586190746)"></line><line x1="33.12212480025076" y1="181.84464820839548" x2="42.55902599465378" y2="191.28154940279848" stroke-width="4.71845059720151" stroke="#7257fa" transform="matrix(-0.2197804700915021,0.4491063849093646,-0.4491063849093646,-0.2197804700915021,129.94387408594366,210.57158562933947)"></line><line x1="140.67966199251788" y1="88.23598999053158" x2="150.27071326422612" y2="97.82704126223982" stroke-width="4.795525635854115" stroke="#ffd53d" transform="matrix(0.21165763795443648,-0.45299121878414894,0.45299121878414894,0.21165763795443648,72.5417879812428,139.23966568575682)"></line><line x1="104.41133655792375" y1="183.20137740891096" x2="112.94375161864978" y2="191.73379246963697" stroke-width="4.266207530363019" stroke="#ffd53d" transform="matrix(0.2114880073953363,-0.45307043903564287,0.45307043903564287,0.2114880073953363,0.7575264870301908,197.05901959598765)"></line><line x1="130.29798687288857" y1="46.185491769169005" x2="139.66978490282904" y2="55.557289799109455" stroke-width="4.685899014970225" stroke="#7257fa" transform="matrix(-0.45760261054093804,-0.20149404662698747,0.20149404662698747,-0.45760261054093804,186.50258317235838,101.34872231986265)"></line><line x1="40.15461122330389" y1="39.266676613298884" x2="49.35222650584248" y2="48.464291895837476" stroke-width="4.598807641269296" stroke="#ffd53d" transform="matrix(-0.1271558989302667,0.4835611412916011,-0.4835611412916011,-0.1271558989302667,71.65572268204524,27.802225448254585)"></line><line x1="4.511540572854947" y1="43.322741680238934" x2="13.824144763762366" y2="52.635345871146356" stroke-width="4.65630209545371" stroke="#7257fa" transform="matrix(0.02032676709405046,0.4995866516826728,-0.4995866516826728,0.02032676709405046,32.951179714371705,42.42365342673767)"></line><line x1="117.31707898358252" y1="83.95645532300767" x2="127.60003916823919" y2="94.23941550766435" stroke-width="5.141480092328337" stroke="#ffd53d" transform="matrix(-0.09958304891799001,-0.4899828735457977,0.4899828735457977,-0.09958304891799001,90.99688966224163,157.97317862177303)"></line><line x1="183.55764546983926" y1="144.7592019887632" x2="191.8525484899464" y2="153.05410500887035" stroke-width="4.147451510053585" stroke="#ffd53d" transform="matrix(0.06929699450755857,-0.49517464247699455,0.49517464247699455,0.06929699450755857,100.96290232510871,231.5346770340425)"></line><line x1="75.32104437985102" y1="50.870297122993335" x2="84.80550193397256" y2="60.3547546771149" stroke-width="4.742228777060779" stroke="#ffd53d" transform="matrix(-0.3673608895120154,0.3391842815593624,-0.3391842815593624,-0.3673608895120154,128.33828473496897,48.88618873617553)"></line><line x1="26.125218808746524" y1="24.61390631102818" x2="35.96915700274549" y2="34.45784450502715" stroke-width="4.921969096999481" stroke="#ffd53d" transform="matrix(-0.24360124679919207,0.4366445150896541,-0.4366445150896541,-0.24360124679919207,51.507000607155476,23.174266693292857)"></line><line x1="24.74553207675598" y1="118.97518499086037" x2="35.73897365682528" y2="129.96862657092967" stroke-width="5.496720790034653" stroke="#7257fa" transform="matrix(-0.071453856673884,0.49486800903516487,-0.49486800903516487,-0.071453856673884,94.00034364513414,118.3999782439051)"></line><line x1="64.59677696670266" y1="144.40623960023476" x2="74.24530669116768" y2="154.0547693246998" stroke-width="4.824264862232514" stroke="#ffd53d" transform="matrix(-0.29675708925266997,-0.40241176669958706,0.40241176669958706,-0.29675708925266997,29.97012131134764,221.4515525770588)"></line><line x1="65.30171194967606" y1="88.01125618297098" x2="75.0660877680911" y2="97.77563200138601" stroke-width="4.88218790920752" stroke="#ffd53d" transform="matrix(-0.45898019210949237,0.19833603618892223,-0.19833603618892223,-0.45898019210949237,120.82103582078103,121.60969854501425)"></line><line x1="128.6503608457278" y1="182.82469409435902" x2="137.43389811615515" y2="191.60823136478632" stroke-width="4.391768635213666" stroke="#ffd53d" transform="matrix(0.2204391772749438,-0.44878343231713214,0.44878343231713214,0.2204391772749438,19.694785907691596,205.6537220336742)"></line><line x1="59.67190438459598" y1="67.41269974627129" x2="70.14960710963878" y2="77.89040247131409" stroke-width="5.2388513625213955" stroke="#ffd53d" transform="matrix(-0.22865306443823022,0.44465467064116904,-0.44465467064116904,-0.22865306443823022,112.05764940631639,60.40067944802956)"></line><line x1="150.39050497595005" y1="160.2119309229772" x2="159.27212642229367" y2="169.0935523693208" stroke-width="4.4408107231718015" stroke="#ffd53d" transform="matrix(0.31758230462011106,-0.38618839934956484,0.38618839934956484,0.31758230462011106,42.07265023791439,172.15600105174667)"></line><line x1="24.389084419759747" y1="163.84588507885297" x2="34.2721148313366" y2="173.7289154904298" stroke-width="4.941515205788428" stroke="#7257fa" transform="matrix(-0.09834024983877476,0.49023381692988843,-0.49023381692988843,-0.09834024983877476,114.96026825273803,171.00714289015662)"></line><line x1="145.68346793033402" y1="35.64926095526303" x2="154.42402513134527" y2="44.38981815627427" stroke-width="4.370278600505623" stroke="#ffd53d" transform="matrix(-0.4989288771462087,-0.03271048073054497,0.03271048073054497,-0.4989288771462087,223.61083927140783,64.89477274437357)"></line><line x1="146.1182884698852" y1="107.14944407673181" x2="155.18189018457574" y2="116.21304579142239" stroke-width="4.531800857345284" stroke="#f9f9fc" transform="matrix(0.42197994408803563,-0.2682031446263416,0.2682031446263416,0.42197994408803563,57.12551000568111,104.95882549707116)"></line><line x1="162.0985702441485" y1="21.062123700701868" x2="171.05763020985324" y2="30.0211836664066" stroke-width="4.479529982852364" stroke="#ffd53d" transform="matrix(-0.45774445137650743,0.2011716114018581,-0.2011716114018581,-0.45774445137650743,247.96655969357204,3.7224186365605334)"></line><line x1="94.23554470944175" y1="49.68554224877103" x2="103.65402069031457" y2="59.104018229643856" stroke-width="4.709237990436411" stroke="#ffd53d" transform="matrix(-0.49122252623643076,0.09327609403217459,-0.09327609403217459,-0.49122252623643076,152.62242087324157,71.88554009111034)"></line><line x1="43.61851872238277" y1="107.84840321801099" x2="53.835278060261764" y2="118.06516255588997" stroke-width="5.108379668939499" stroke="#f9f9fc" transform="matrix(-0.2954315036121127,0.4033859524989514,-0.4033859524989514,-0.2954315036121127,108.68753861351908,126.67202938656425)"></line><line x1="106.0706216749593" y1="4.812309664219026" x2="115.69524100339736" y2="14.43692899265708" stroke-width="4.812309664219026" stroke="#ffd53d" transform="matrix(-0.48643651901284163,0.11566984469026213,-0.11566984469026213,-0.48643651901284163,165.9337214663794,1.4805733532057612)"></line><line x1="66.70940438608083" y1="27.930303463892667" x2="75.53848071368883" y2="36.75937979150066" stroke-width="4.414538163803999" stroke="#f9f9fc" transform="matrix(-0.3748311577250506,0.33091026457107403,-0.33091026457107403,-0.3748311577250506,108.48665355831491,20.933053610012692)"></line><line x1="56.80485677753545" y1="46.56196871083199" x2="66.29443654812582" y2="56.05154848142236" stroke-width="4.744789885295186" stroke="#ffd53d" transform="matrix(-0.21402274891752424,0.45187859314841017,-0.45187859314841017,-0.21402274891752424,97.90709459660363,34.4746057023076)"></line><line x1="121.9898613562756" y1="24.564791650884764" x2="131.70408681614202" y2="34.279017110751184" stroke-width="4.857112729933211" stroke="#f9f9fc" transform="matrix(-0.49488200964801976,0.07135682536896722,-0.07135682536896722,-0.49488200964801976,191.72071224863578,34.93087849130564)"></line><line x1="4.63176816107963" y1="107.4287436099202" x2="16.008640110831706" y2="118.80561555967229" stroke-width="5.688435974876039" stroke="#ffd53d" transform="matrix(0.24510924700650646,0.4357997900778561,-0.4357997900778561,0.24510924700650646,57.08707000515088,80.89357023984003)"></line><line x1="181.64120354036828" y1="27.11890274574288" x2="191.21373451345607" y2="36.6914337188307" stroke-width="4.786265486543911" stroke="#ffd53d" transform="matrix(-0.40958610338633594,0.28677382013147174,-0.28677382013147174,-0.40958610338633594,271.9351340494526,-8.48943614181438)"></line><line x1="162.1787596020465" y1="97.38053358593797" x2="172.46536749617138" y2="107.66714148006284" stroke-width="5.143303947062441" stroke="#ffd53d" transform="matrix(0.3495701904684095,-0.35749221241291385,0.35749221241291385,0.3495701904684095,72.17978168931944,126.50089373399057)"></line><line x1="45.354652460664845" y1="158.18971369989387" x2="57.187522934356316" y2="170.02258417358533" stroke-width="5.916435236845735" stroke="#f9f9fc" transform="matrix(-0.4891305703981912,0.10368840389330006,-0.10368840389330006,-0.4891305703981912,93.36524852289126,239.05926418486467)"></line><line x1="4.556211241181234" y1="4.903815624215673" x2="14.134305604321668" y2="14.481909987356106" stroke-width="4.789047181570217" stroke="#7257fa" transform="matrix(-0.47134590265776827,0.16683237110265392,-0.16683237110265392,-0.47134590265776827,15.367191431289656,12.702462572089289)"></line><line x1="181.1060259054719" y1="107.0762924441741" x2="190.44352431001985" y2="116.41379084872202" stroke-width="4.668749202273964" stroke="#ffd53d" transform="matrix(0.2453004736263844,-0.43569218220972417,0.43569218220972417,0.2453004736263844,91.51769796649808,165.27454885383202)"></line><line x1="48.482177676077896" y1="21.763491675760434" x2="57.6133528830981" y2="30.89466688278064" stroke-width="4.565587603510102" stroke="#ffd53d" transform="matrix(-0.3432648465747441,0.36355088379210054,-0.36355088379210054,-0.3432648465747441,80.8291590650634,16.081364991950792)"></line><line x1="23.667155921300147" y1="4.9968836929264855" x2="33.43588789763768" y2="14.765615669264015" stroke-width="4.884365988168764" stroke="#ffd53d" transform="matrix(-0.4735451508931411,0.16048361307495618,-0.16048361307495618,-0.4735451508931411,43.657734450499945,9.978416584520325)"></line><line x1="151.8234861908723" y1="182.42525203532145" x2="160.87331816732467" y2="191.47508401177382" stroke-width="4.524915988226184" stroke="#ffd53d" transform="matrix(-0.04664028536929655,-0.4978199310801754,0.4978199310801754,-0.04664028536929655,70.57301995338884,273.50292550005264)"></line><line x1="85.5891682778002" y1="144.6001476372541" x2="95.99201715436358" y2="155.0029965138175" stroke-width="5.201424438281688" stroke="#7257fa" transform="matrix(0.16679851053789718,-0.4713578861993708,0.4713578861993708,0.16679851053789718,5.036706637788711,167.60975043601007)"></line><line x1="4.773242494666765" y1="63.585594641000924" x2="15.078094357431926" y2="73.89044650376609" stroke-width="5.15242593138258" stroke="#ffd53d" transform="matrix(0.19596413848289046,0.45999788741760383,-0.45999788741760383,0.19596413848289046,39.599938050689204,50.70204819619674)"></line><line x1="114.5983007141953" y1="165.9305721210574" x2="124.06311414610191" y2="175.39538555296397" stroke-width="4.7324067159532985" stroke="#ffd53d" transform="matrix(0.3960371034124914,-0.30521240590880905,0.30521240590880905,0.3960371034124914,19.9828590212246,139.49531839903628)"></line><line x1="23.60557846722953" y1="72.56166669344809" x2="33.778756714776996" y2="82.73484494099556" stroke-width="5.0865891237737335" stroke="#f9f9fc" transform="matrix(0.12866397930623252,0.4831620643522061,-0.4831620643522061,0.12866397930623252,62.517211594392826,53.7947575470709)"></line><line x1="42.43268668465103" y1="135.57074307822145" x2="52.18027496714734" y2="145.31833136071774" stroke-width="4.873794141248154" stroke="#ffd53d" transform="matrix(-0.43949813971049767,0.23841431414873537,-0.23841431414873537,-0.43949813971049767,101.58157786464875,190.89110377869162)"></line><line x1="183.14608447063" y1="48.35886614031235" x2="191.71536149021" y2="56.92814315989235" stroke-width="4.28463850979" stroke="#ffd53d" transform="matrix(-0.4946712823361095,-0.07280331333084385,0.07280331333084385,-0.4946712823361095,276.31470063453105,92.33031307626877)"></line><line x1="102.9901204822825" y1="107.16502089053026" x2="113.39315034637822" y2="117.56805075462597" stroke-width="5.201514932047851" stroke="#ffd53d" transform="matrix(0.09851248455099092,-0.4901992354008631,0.4901992354008631,0.09851248455099092,42.45141684420517,154.33248888242986)"></line><line x1="70.43372655104687" y1="163.49624949078773" x2="80.37898348505718" y2="173.441506424798" stroke-width="4.972628467005148" stroke="#7257fa" transform="matrix(-0.20484086559401019,-0.45611426176200265,0.45611426176200265,-0.20484086559401019,14.01159692188002,237.37210387236053)"></line><line x1="140.88072137413548" y1="19.269148249579857" x2="149.36738099996614" y2="27.75580787541051" stroke-width="4.243329812915329" stroke="#7257fa" transform="matrix(-0.47653669922507086,0.15136966106744895,-0.15136966106744895,-0.47653669922507086,217.84006741174983,12.749657611880174)"></line><line x1="110.81583679956783" y1="41.3290693608991" x2="120.75316448389994" y2="51.266397045231216" stroke-width="4.968663842166055" stroke="#7257fa" transform="matrix(-0.4998137975336458,-0.013644331973229756,0.013644331973229756,-0.4998137975336458,173.02348918076996,71.01778136521878)"></line><line x1="147.82111247834268" y1="140.24934996110207" x2="157.1609207814741" y2="149.58915826423348" stroke-width="4.669904151565695" stroke="#7257fa" transform="matrix(0.4436084167036687,-0.230676337385663,0.230676337385663,0.4436084167036687,51.4152740047748,115.80791949391903)"></line><line x1="59.30147628382213" y1="125.74227743379771" x2="68.622291124945" y2="135.06309227492056" stroke-width="4.660407420561433" stroke="#f9f9fc" transform="matrix(-0.4912596693960208,-0.09308027301696298,0.09308027301696298,-0.4912596693960208,83.24585959426946,200.41785759550828)"></line><line x1="5.962449336210762" y1="24.16989316005678" x2="15.522126614419312" y2="33.729570438265334" stroke-width="4.779838639104275" stroke="#7257fa" transform="matrix(-0.21562270870746758,0.4511173322869058,-0.4511173322869058,-0.21562270870746758,26.118295595542275,30.34592022290428)"></line><line x1="101.13251153961448" y1="23.784961606318184" x2="110.95340441340412" y2="33.60585448010783" stroke-width="4.910446436894823" stroke="#ffd53d" transform="matrix(-0.4736062777477839,0.16030313059291434,-0.16030313059291434,-0.4736062777477839,160.86553693307823,25.286714531004655)"></line><line x1="135.3294865558306" y1="69.89962481519514" x2="144.8703433089534" y2="79.44048156831794" stroke-width="4.770428376561403" stroke="#f9f9fc" transform="matrix(-0.10302381686317809,-0.4892709813170431,0.4892709813170431,-0.10302381686317809,117.99965121463603,150.90967217570028)"></line></svg>