<svg width="267" height="239" viewBox="0 0 267 239" fill="none" xmlns="http://www.w3.org/2000/svg">
<g id="BackEnd">
<g id="expressjs-ar21 1">
<path id="Vector" d="M99.2754 201.738V172.154H101.227V176.808C101.457 176.601 101.67 176.382 101.864 176.152C103.494 173.371 106.932 171.616 110.685 171.651C115.135 171.542 118.751 172.896 120.876 176.152C122.228 178.174 122.972 180.433 123.046 182.74C123.12 185.048 122.521 187.336 121.301 189.414C119.321 193.062 114.431 194.876 109.196 194.21C107.567 194.096 105.998 193.649 104.633 192.908C103.269 192.168 102.151 191.158 101.383 189.971V201.737L99.2754 201.738ZM101.227 182.619L101.664 186.093C102.435 190.047 105.279 192.383 109.742 192.822C111.838 193.106 113.989 192.783 115.828 191.908C117.667 191.033 119.08 189.662 119.827 188.026C121.563 184.624 121.435 180.773 119.483 177.451C118.687 175.985 117.331 174.772 115.622 173.995C113.913 173.219 111.943 172.921 110.009 173.146C108.194 173.255 106.466 173.825 105.064 174.779C103.661 175.732 102.655 177.021 102.184 178.466C101.768 179.834 101.449 181.22 101.227 182.618V182.619ZM162.895 186.64C162.599 188.723 161.393 190.646 159.501 192.053C157.61 193.46 155.161 194.254 152.611 194.287C144.426 194.626 140.586 190.157 139.975 185C139.551 182.2 140.103 179.358 141.569 176.806C142.589 175.056 144.261 173.618 146.341 172.7C148.422 171.783 150.804 171.434 153.141 171.705C155.364 171.86 157.471 172.586 159.164 173.78C160.857 174.974 162.05 176.576 162.575 178.358C162.991 179.982 163.297 181.623 163.491 183.275H141.997C141.599 187.95 144.654 191.709 148.985 192.616C154.38 193.707 158.99 191.785 160.664 187.568C161.035 186.486 161.713 186.333 162.909 186.64H162.895ZM141.981 181.778H161.207C161.087 176.797 157.315 173.177 152.198 173.136C146.422 173.059 142.233 176.534 141.981 181.778ZM166.868 186.749H168.753C168.822 187.89 169.273 188.994 170.056 189.939C170.839 190.883 171.923 191.632 173.19 192.102C174.781 192.691 176.512 192.977 178.256 192.939C180 192.901 181.711 192.541 183.262 191.884C184.107 191.571 184.815 191.052 185.291 190.398C185.766 189.743 185.985 188.984 185.919 188.224C185.968 187.491 185.724 186.764 185.226 186.155C184.727 185.546 184 185.087 183.156 184.848C181.082 184.213 178.878 183.864 176.765 183.307C174.567 182.793 172.418 182.146 170.334 181.374C166.931 180.008 166.72 174.688 170.573 173.004C172.546 172.088 174.767 171.594 177.032 171.565C179.297 171.536 181.535 171.974 183.541 172.839C186.03 173.969 187.406 176.25 186.996 178.565H185.381C185.381 178.501 185.234 178.444 185.234 178.379C185.034 174.142 180.703 172.818 176.053 173.19C174.648 173.318 173.316 173.667 172.067 174.184C171.317 174.465 170.691 174.932 170.277 175.519C169.863 176.107 169.681 176.785 169.757 177.461C169.758 178.137 170.015 178.797 170.49 179.348C170.966 179.9 171.638 180.317 172.414 180.542C174.444 181.154 176.598 181.547 178.698 182.027L183.772 183.118C184.926 183.43 185.937 184.021 186.672 184.816C187.408 185.61 187.833 186.568 187.891 187.565C188.297 189.805 186.908 192.007 184.45 193.028C180.013 195.092 172.704 194.546 169.449 191.937C167.783 190.559 166.854 188.689 166.873 186.748L166.868 186.749ZM211.802 178.566H210.035C210.035 178.37 209.941 178.181 209.915 178.031C209.886 176.942 209.404 175.893 208.547 175.062C207.691 174.231 206.513 173.667 205.211 173.465C202.754 172.885 200.134 172.989 197.757 173.76C196.817 173.981 195.989 174.446 195.398 175.087C194.806 175.727 194.483 176.507 194.475 177.311C194.441 178.1 194.74 178.875 195.321 179.504C195.902 180.133 196.729 180.577 197.663 180.763L205.741 182.468C206.615 182.64 207.475 182.855 208.317 183.112C210.894 183.882 212.642 185.849 212.72 188.097C212.759 189.197 212.392 190.281 211.667 191.207C210.943 192.132 209.895 192.856 208.661 193.283C206.786 193.983 204.754 194.354 202.695 194.371C200.636 194.388 198.595 194.051 196.703 193.382C195.147 192.83 193.835 191.9 192.941 190.717C192.048 189.533 191.617 188.153 191.707 186.762H193.434C194.083 189.336 196.233 191.479 199.182 192.494C202.132 193.508 205.499 193.259 208.182 191.831C208.986 191.487 209.654 190.961 210.107 190.314C210.559 189.667 210.776 188.928 210.733 188.183C210.773 187.449 210.521 186.724 210.015 186.119C209.509 185.514 208.776 185.061 207.929 184.828C205.855 184.194 203.651 183.857 201.538 183.288C199.328 182.781 197.166 182.142 195.068 181.376C191.746 180.032 191.481 174.756 195.268 173.073C197.266 172.119 199.529 171.607 201.839 171.586C204.149 171.565 206.426 172.035 208.449 172.952C209.606 173.52 210.537 174.352 211.129 175.347C211.721 176.343 211.948 177.458 211.784 178.557L211.802 178.566ZM96.0638 193.753C95.3681 193.969 94.6002 193.969 93.905 193.751C93.2098 193.534 92.6354 193.115 92.2902 192.573L85.4205 184.762L84.4244 183.67L76.4525 192.585C76.1275 193.103 75.5842 193.507 74.9239 193.72C74.2637 193.933 73.5317 193.941 72.8646 193.743L83.1348 182.414L73.5797 172.177C74.9973 171.756 76.5774 172.213 77.3658 173.268L84.4853 181.176L91.6469 173.299C91.9743 172.789 92.518 172.397 93.1746 172.195C93.8312 171.994 94.555 171.998 95.2082 172.207L91.5002 176.252L86.4775 181.627C86.3381 181.729 86.2266 181.854 86.1502 181.995C86.0738 182.135 86.0344 182.287 86.0344 182.441C86.0344 182.594 86.0738 182.746 86.1502 182.886C86.2266 183.027 86.3381 183.152 86.4775 183.255L96.0435 193.753H96.0638ZM139.671 172.068V173.608C138.327 173.536 136.979 173.696 135.715 174.078C134.451 174.46 133.299 175.056 132.332 175.827C131.366 176.598 130.607 177.527 130.104 178.555C129.601 179.582 129.366 180.684 129.413 181.791C129.413 185.389 129.413 188.987 129.413 192.585V193.808H127.513V172.164H129.386V176.6C131.685 173.364 135.232 172.164 139.683 172.077L139.671 172.068ZM48.2727 182.272L49.1096 178.874C51.4078 172.155 60.7755 169.359 67.2205 173.521C70.9942 175.958 71.9356 179.41 71.7514 183.299H50.4913C50.1478 190.247 56.2447 194.442 64.0433 192.301C66.6132 191.531 68.5476 189.775 69.1846 187.592C69.5968 186.501 70.2776 186.314 71.5235 186.629C71.3157 187.96 70.7438 189.234 69.8509 190.356C68.9579 191.478 67.7671 192.419 66.3681 193.109C64.0567 194.148 61.4048 194.56 58.7915 194.285C56.1783 194.011 53.7376 193.064 51.8184 191.58C49.9199 189.825 48.7739 187.606 48.5506 185.264C48.5506 184.878 48.3945 184.519 48.2852 184.172C48.2748 183.525 48.2696 182.891 48.2696 182.272H48.2727ZM50.5179 181.803H69.7436C69.6234 176.766 65.7576 173.194 60.6022 173.16C54.8629 173.096 50.7567 176.591 50.5038 181.781L50.5179 181.803Z" fill="black"/>
</g>
<rect id="Rectangle 1" x="1.31302" y="0.5" width="265" height="238" fill="#C4C4C4" fill-opacity="0.19" stroke="black" stroke-dasharray="10 10"/>
<g id="nodejs-svgrepo-com 1">
<g id="Group">
<path id="Vector_2" d="M133.3 111.536C132.88 111.536 132.489 111.437 132.125 111.263L128.402 109.301C127.842 109.028 128.122 108.929 128.29 108.879C129.046 108.656 129.186 108.606 129.969 108.209C130.053 108.159 130.165 108.184 130.249 108.233L133.104 109.748C133.216 109.798 133.356 109.798 133.44 109.748L144.609 104.012C144.721 103.963 144.777 103.863 144.777 103.739V92.2921C144.777 92.168 144.721 92.0686 144.609 92.019L133.44 86.3079C133.328 86.2583 133.188 86.2583 133.104 86.3079L121.936 92.019C121.824 92.0686 121.768 92.1928 121.768 92.2921V103.739C121.768 103.838 121.824 103.963 121.936 104.012L124.987 105.577C126.638 106.321 127.674 105.452 127.674 104.583V93.2853C127.674 93.1364 127.814 92.9874 128.01 92.9874H129.437C129.605 92.9874 129.773 93.1115 129.773 93.2853V104.583C129.773 106.545 128.57 107.687 126.47 107.687C125.827 107.687 125.323 107.687 123.895 107.066L120.956 105.577C120.228 105.204 119.781 104.509 119.781 103.764V92.3169C119.781 91.572 120.228 90.8768 120.956 90.5043L132.125 84.7684C132.824 84.4208 133.776 84.4208 134.476 84.7684L145.644 90.5043C146.372 90.8768 146.82 91.572 146.82 92.3169V103.764C146.82 104.509 146.372 105.204 145.644 105.577L134.476 111.312C134.112 111.461 133.692 111.536 133.3 111.536ZM136.743 103.665C131.845 103.665 130.837 101.678 130.837 99.9896C130.837 99.8407 130.977 99.6917 131.173 99.6917H132.628C132.796 99.6917 132.936 99.791 132.936 99.94C133.16 101.256 133.804 101.902 136.771 101.902C139.122 101.902 140.13 101.43 140.13 100.312C140.13 99.6668 139.85 99.1951 136.183 98.8723C133.132 98.5991 131.229 98.0032 131.229 95.8429C131.229 93.8316 133.132 92.6397 136.323 92.6397C139.906 92.6397 141.67 93.7323 141.893 96.116C141.893 96.1905 141.865 96.265 141.81 96.3395C141.754 96.3892 141.67 96.4388 141.586 96.4388H140.13C139.99 96.4388 139.85 96.3395 139.822 96.2154C139.486 94.8497 138.619 94.4027 136.323 94.4027C133.748 94.4027 133.44 95.1973 133.44 95.7932C133.44 96.5133 133.804 96.7368 137.275 97.1341C140.718 97.5314 142.341 98.1025 142.341 100.238C142.313 102.423 140.298 103.665 136.743 103.665Z" fill="#539E43"/>
<path id="Vector_3" d="M98.6465 66.7662C98.6465 66.3193 98.3666 65.8971 97.9187 65.6737L86.0506 59.615C85.8546 59.5157 85.6307 59.466 85.4068 59.4412H85.2948C85.0709 59.4412 84.847 59.5157 84.651 59.615L72.7829 65.6737C72.335 65.8971 72.0551 66.3193 72.0551 66.7662L72.0831 83.0552C72.0831 83.2786 72.223 83.5021 72.447 83.6014C72.6709 83.7256 72.9508 83.7256 73.1467 83.6014L80.2005 80.0258C80.6483 79.8023 80.9282 79.3802 80.9282 78.9333V71.3102C80.9282 70.8633 81.2081 70.4412 81.656 70.2177L84.651 68.6782C84.875 68.554 85.1269 68.5044 85.3788 68.5044C85.6307 68.5044 85.8826 68.554 86.0786 68.6782L89.0736 70.2177C89.5215 70.4412 89.8014 70.8633 89.8014 71.3102V78.9333C89.8014 79.3802 90.0813 79.8023 90.5291 80.0258L97.5829 83.6014C97.8068 83.7256 98.0867 83.7256 98.3106 83.6014C98.5346 83.5021 98.6745 83.2786 98.6745 83.0552L98.6465 66.7662Z" fill="#333333"/>
<path id="Vector_4" d="M155.693 44.344C155.469 44.2447 155.189 44.2447 154.993 44.344C154.769 44.4682 154.629 44.6668 154.629 44.8903V61.0303C154.629 61.1792 154.545 61.3282 154.377 61.4275C154.209 61.502 154.042 61.502 153.874 61.4275L150.907 59.9129C150.459 59.6894 149.927 59.6894 149.479 59.9129L137.611 65.9964C137.163 66.2199 136.883 66.642 136.883 67.0889V79.2312C136.883 79.6781 137.163 80.1002 137.611 80.3237L149.479 86.4072C149.927 86.6307 150.459 86.6307 150.907 86.4072L162.775 80.3237C163.223 80.1002 163.503 79.6781 163.503 79.2312V48.9625C163.503 48.4907 163.223 48.0686 162.775 47.8452L155.693 44.344ZM154.601 75.2334C154.601 75.3576 154.545 75.4569 154.433 75.5066L150.375 77.5923C150.263 77.642 150.123 77.642 150.011 77.5923L145.952 75.5066C145.84 75.4569 145.784 75.3327 145.784 75.2334V71.0619C145.784 70.9377 145.84 70.8384 145.952 70.7887L150.011 68.7029C150.123 68.6533 150.263 68.6533 150.375 68.7029L154.433 70.7887C154.545 70.8384 154.601 70.9625 154.601 71.0619V75.2334Z" fill="#333333"/>
<g id="Group_2">
<path id="Vector_5" d="M195.188 70.9624C195.636 70.739 195.888 70.3168 195.888 69.8699V66.915C195.888 66.4681 195.608 66.046 195.188 65.8225L183.404 59.7638C182.956 59.5403 182.424 59.5403 181.977 59.7638L170.108 65.8473C169.661 66.0708 169.381 66.4929 169.381 66.9399V79.0821C169.381 79.529 169.661 79.9512 170.108 80.1746L181.893 86.134C182.34 86.3575 182.872 86.3575 183.292 86.134L190.43 82.608C190.654 82.5087 190.794 82.2852 190.794 82.0618C190.794 81.8383 190.654 81.6148 190.43 81.5155L178.506 75.432C178.282 75.3078 178.142 75.1092 178.142 74.8857V71.0866C178.142 70.8631 178.282 70.6396 178.506 70.5403L182.228 68.6532C182.452 68.529 182.732 68.529 182.956 68.6532L186.679 70.5403C186.903 70.6645 187.043 70.8631 187.043 71.0866V74.0663C187.043 74.2898 187.183 74.5132 187.407 74.6126C187.631 74.7367 187.911 74.7367 188.135 74.6126L195.188 70.9624Z" fill="#333333"/>
<path id="Vector_6" d="M182.508 70.3914C182.592 70.3417 182.704 70.3417 182.788 70.3914L185.056 71.5584C185.14 71.6081 185.195 71.6826 185.195 71.7819V74.116C185.195 74.2153 185.14 74.2898 185.056 74.3395L182.788 75.5065C182.704 75.5562 182.592 75.5562 182.508 75.5065L180.241 74.3395C180.157 74.2898 180.101 74.2153 180.101 74.116V71.7819C180.101 71.6826 180.157 71.6081 180.241 71.5584L182.508 70.3914Z" fill="#539E43"/>
</g>
<g id="Group_3">
<mask id="mask0_2:32" style="mask-type:alpha" maskUnits="userSpaceOnUse" x="104" y="59" width="27" height="28">
<g id="mask-3">
<path id="Vector_7" d="M118.493 59.8136C118.045 59.5901 117.513 59.5901 117.065 59.8136L105.281 65.8475C104.833 66.0709 104.581 66.4931 104.581 66.94V79.0326C104.581 79.4795 104.861 79.9016 105.281 80.1251L117.065 86.159C117.513 86.3824 118.045 86.3824 118.493 86.159L130.277 80.1251C130.725 79.9016 130.977 79.4795 130.977 79.0326V66.94C130.977 66.4931 130.697 66.0709 130.277 65.8475L118.493 59.8136Z" fill="white"/>
</g>
</mask>
<g mask="url(#mask0_2:32)">
<path id="Vector_8" d="M118.493 59.8136C118.045 59.5901 117.513 59.5901 117.065 59.8136L105.281 65.8475C104.833 66.0709 104.581 66.4931 104.581 66.94V79.0326C104.581 79.4795 104.861 79.9016 105.281 80.1251L117.065 86.159C117.513 86.3824 118.045 86.3824 118.493 86.159L130.277 80.1251C130.725 79.9016 130.977 79.4795 130.977 79.0326V66.94C130.977 66.4931 130.697 66.0709 130.277 65.8475L118.493 59.8136Z" fill="url(#paint0_linear_2:32)"/>
<g id="Group_4">
<path id="Vector_9" d="M130.305 65.8475L118.465 59.8136C118.353 59.7639 118.213 59.7143 118.101 59.6895L104.833 79.852C104.945 79.9761 105.085 80.0755 105.225 80.15L117.065 86.1838C117.401 86.3576 117.793 86.4073 118.157 86.308L130.613 66.0958C130.529 65.9965 130.417 65.922 130.305 65.8475Z" fill="url(#paint1_linear_2:32)"/>
</g>
<g id="Group_5">
<g id="Group_6">
<path id="Vector_10" fill-rule="evenodd" clip-rule="evenodd" d="M130.333 80.1251C130.669 79.9512 130.921 79.6533 131.033 79.3305L118.045 59.6646C117.709 59.6149 117.345 59.6397 117.037 59.8135L105.281 65.8226L117.961 86.3327C118.129 86.3079 118.325 86.2582 118.493 86.1837L130.333 80.1251Z" fill="url(#paint2_linear_2:32)"/>
<path id="Vector_11" fill-rule="evenodd" clip-rule="evenodd" d="M130.333 80.1251L118.521 86.159C118.353 86.2335 118.185 86.2831 117.989 86.308L118.213 86.6804L131.313 79.9513V79.8023L130.977 79.3057C130.921 79.6534 130.669 79.9513 130.333 80.1251Z" fill="url(#paint3_linear_2:32)"/>
<path id="Vector_12" fill-rule="evenodd" clip-rule="evenodd" d="M130.333 80.1251L118.521 86.159C118.353 86.2335 118.185 86.2831 117.989 86.308L118.213 86.6804L131.313 79.9513V79.8023L130.977 79.3057C130.921 79.6534 130.669 79.9513 130.333 80.1251Z" fill="url(#paint4_linear_2:32)"/>
</g>
</g>
</g>
</g>
</g>
</g>
</g>
<defs>
<linearGradient id="paint0_linear_2:32" x1="122.58" y1="64.3116" x2="111.75" y2="83.4941" gradientUnits="userSpaceOnUse">
<stop stop-color="#41873F"/>
<stop offset="0.3288" stop-color="#418B3D"/>
<stop offset="0.6352" stop-color="#419637"/>
<stop offset="0.9319" stop-color="#3FA92D"/>
<stop offset="1" stop-color="#3FAE2A"/>
</linearGradient>
<linearGradient id="paint1_linear_2:32" x1="115.99" y1="74.4025" x2="146.459" y2="55.742" gradientUnits="userSpaceOnUse">
<stop offset="0.1376" stop-color="#41873F"/>
<stop offset="0.4032" stop-color="#54A044"/>
<stop offset="0.7136" stop-color="#66B848"/>
<stop offset="0.9081" stop-color="#6CC04A"/>
</linearGradient>
<linearGradient id="paint2_linear_2:32" x1="104.151" y1="72.9866" x2="131.419" y2="72.9866" gradientUnits="userSpaceOnUse">
<stop offset="0.0919165" stop-color="#6CC04A"/>
<stop offset="0.2864" stop-color="#66B848"/>
<stop offset="0.5968" stop-color="#54A044"/>
<stop offset="0.8624" stop-color="#41873F"/>
</linearGradient>
<linearGradient id="paint3_linear_2:32" x1="104.151" y1="83.0134" x2="131.419" y2="83.0134" gradientUnits="userSpaceOnUse">
<stop offset="0.0919165" stop-color="#6CC04A"/>
<stop offset="0.2864" stop-color="#66B848"/>
<stop offset="0.5968" stop-color="#54A044"/>
<stop offset="0.8624" stop-color="#41873F"/>
</linearGradient>
<linearGradient id="paint4_linear_2:32" x1="135.392" y1="63.74" x2="129.914" y2="96.0933" gradientUnits="userSpaceOnUse">
<stop stop-color="#41873F"/>
<stop offset="0.3288" stop-color="#418B3D"/>
<stop offset="0.6352" stop-color="#419637"/>
<stop offset="0.9319" stop-color="#3FA92D"/>
<stop offset="1" stop-color="#3FAE2A"/>
</linearGradient>
</defs>
</svg>
