<?xml version='1.0' encoding='UTF-8' standalone='no'?>
<!-- Created with Fritzing (http://www.fritzing.org/) -->
<svg xmlns:svg='http://www.w3.org/2000/svg' xmlns='http://www.w3.org/2000/svg' version='1.2' baseProfile='tiny' x='0in' y='0in' width='7.18169in' height='4.46002in' viewBox='0 0 517.082 321.122' >
<g partID='65810'><g transform='translate(233.885,0)' ><g transform='matrix(0,1,-1,0,0,0)'  ><g transform="matrix(1, 0, 0, 1, 0, -769.89)">
<g id="breadboard">
<g gorn="0.5.0.0">
<g transform="matrix(1, 0, 0, 1, 0, 0.001944)">
<g>
<rect height="43.92" rx="1.8" y="776.368" stroke-opacity="1" stroke-width="0.144" stroke="#000000" fill="#343434" fill-opacity="1" width="36" id="rect5185" gorn="0.5.0.0.0.0" style="fill-rule:evenodd;stroke-miterlimit:4;stroke-dasharray:none;display:inline" x="7.2"/>
</g>
</g>
<g transform="matrix(1, 0, 0, 1, 0, 0.001944)">
<g>
<rect height="14.4" y="820.288" stroke="none" fill="#b3b3b3" fill-opacity="1" width="2.16" id="rect5470" gorn="0.5.0.0.1.0" style="fill-rule:evenodd;display:inline" x="16.92"/>
</g>
</g>
<g transform="matrix(1, 0, 0, 1, 0, 0.001944)">
<g>
<rect height="14.4" y="820.288" stroke="none" fill="#b3b3b3" fill-opacity="1" width="2.16" id="rect5476" gorn="0.5.0.0.2.0" style="fill-rule:evenodd;display:inline" x="24.12"/>
</g>
</g>
<g transform="matrix(1, 0, 0, 1, 0, 0.001944)">
<g>
<rect height="14.4" y="820.288" stroke="none" fill="#b3b3b3" fill-opacity="1" width="2.16" id="rect5478" gorn="0.5.0.0.3.0" style="fill-rule:evenodd;display:inline" x="31.32"/>
</g>
</g>
<g transform="matrix(1, 0, 0, 1, 0, 0.001944)">
<g>
<rect height="2.88" y="833.248" stroke="none" fill="none" width="2.88" id="connector1" gorn="0.5.0.0.4.0" style="display:inline" x="16.56"/>
</g>
</g>
<g transform="matrix(1, 0, 0, 1, 0, 0.001944)">
<g>
<rect height="2.88" y="833.248" stroke="none" fill="none" width="2.88" id="connector2" gorn="0.5.0.0.5.0" style="display:inline" x="23.76"/>
</g>
</g>
<g transform="matrix(1, 0, 0, 1, 0, 0.001944)">
<g>
<rect height="2.88" y="833.248" stroke="none" fill="none" width="2.88" id="connector3" gorn="0.5.0.0.6.0" style="display:inline" x="30.96"/>
</g>
</g>
<rect height="24.12" y="781.77" stroke-opacity="1" stroke-width="0.229092" stroke="#000000" fill="#d7f4ee" fill-opacity="0.63586958" width="16.92" id="rect5401" gorn="0.5.0.0.7" style="fill-rule:evenodd;stroke-linecap:round;stroke-linejoin:miter;stroke-miterlimit:4;stroke-dasharray:none;display:inline" x="11.88"/>
<rect height="42.48" rx="1.41061" y="777.09" stroke-opacity="1" stroke-width="1.44" stroke="#316691" fill="none" width="34.56" id="rect5406" gorn="0.5.0.0.8" style="stroke-linecap:round;stroke-linejoin:miter;stroke-miterlimit:4;stroke-dasharray:none;display:inline" x="7.92"/>
<path d="m9,776.375c-0.9972,0,-1.8,0.8028,-1.8,1.8l0,9,7.2,0,0,2.875,-7.2,0,0,2.875,7.2,0,0,2.875,-7.2,0,0,2.9,7.2,0,0,2.87496,-7.2,0,0,2.87504,7.2,0,0,2.87496,-7.2,0,0,2.87504,7.2,0,0,2.9,-7.2,0,0,5.4c0,0.9972,0.8028,1.8,1.8,1.8l32.4,0c0.9972,0,1.8,-0.8028,1.8,-1.8l0,-5.4,-7.2,0,0,-2.9,7.2,0,0,-2.87504,-7.2,0,0,-2.87496,7.2,0,0,-2.87504,-7.2,0,0,-2.87496,7.2,0,0,-2.9,-7.2,0,0,-2.875,7.2,0,0,-2.875,-7.2,0,0,-2.875,7.2,0,0,-9c0,-0.9972,-0.8028,-1.8,-1.8,-1.8l-9,0,0,7.2,-2.875,0,0,-7.2,-2.875,0,0,7.2,-2.9,0,0,-7.2,-2.875,0,0,7.2,-2.875,0,0,-7.2,-9,0zm9,10.8,2.875,0,0,2.875,-2.875,0,0,-2.875zm5.75,0,2.9,0,0,2.875,-2.9,0,0,-2.875zm5.775,0,2.875,0,0,2.875,-2.875,0,0,-2.875zm-11.525,5.75,2.875,0,0,2.875,-2.875,0,0,-2.875zm5.75,0,2.9,0,0,2.875,-2.9,0,0,-2.875zm5.775,0,2.875,0,0,2.875,-2.875,0,0,-2.875zM18,798.7l2.875,0,0,2.87496,-2.875,0,0,-2.87496zm5.75,0,2.9,0,0,2.87496,-2.9,0,0,-2.87496zm5.775,0,2.875,0,0,2.87496,-2.875,0,0,-2.87496zm-11.525,5.75,2.875,0,0,2.87496,-2.875,0,0,-2.87496zm5.75,0,2.9,0,0,2.87496,-2.9,0,0,-2.87496zm5.775,0,2.875,0,0,2.87496,-2.875,0,0,-2.87496zM18,810.2l2.875,0,0,2.9,-2.875,0,0,-2.9zm5.75,0,2.9,0,0,2.9,-2.9,0,0,-2.9zm5.775,0,2.875,0,0,2.9,-2.875,0,0,-2.9z" stroke-opacity="1" stroke-width="0.144" stroke="#000000" fill="#48a1d1" fill-opacity="1" id="rect4672" gorn="0.5.0.0.9" style="fill-rule:evenodd;stroke-miterlimit:4;stroke-dasharray:none;display:inline"/>
<g transform="matrix(1, 0, 0, 1, 2.67029e-07, 7.2)">
<g>
<g stroke-opacity="0.70652173" stroke-width="0.504" stroke="#ffffff" id="g5460" gorn="0.5.0.0.10.0" style="stroke-miterlimit:4;stroke-dasharray:none">
<path d="m9,769.89,7.56,0m-8.64,1.07998c0,-0.596472,0.483533,-1.08,1.08,-1.08m-1.08,9.36002,0,-8.28" stroke-opacity="0.70652173" stroke-width="0.504" stroke="#ffffff" fill="none" id="path5415" gorn="0.5.0.0.10.0.0" style="stroke-linecap:round;stroke-linejoin:miter;stroke-miterlimit:4;stroke-dasharray:none"/>
<path d="m7.92,783.57,0,1.44" stroke-opacity="0.70652173" stroke-width="0.504" stroke="#ffffff" fill="none" id="path5422" gorn="0.5.0.0.10.0.1" style="stroke-linecap:round;stroke-linejoin:miter;stroke-miterlimit:4;stroke-dasharray:none"/>
<path d="m7.92,789.33,0,1.44" stroke-opacity="0.70652173" stroke-width="0.504" stroke="#ffffff" fill="none" id="path5426" gorn="0.5.0.0.10.0.2" style="color:#000000;stroke-linecap:round;stroke-linejoin:miter;stroke-miterlimit:4;stroke-dasharray:none;stroke-dashoffset:0;marker:none;visibility:visible;display:inline;overflow:visible;enable-background:accumulate"/>
<path d="m7.92,795.09,0,1.44" stroke-opacity="0.70652173" stroke-width="0.504" stroke="#ffffff" fill="none" id="path5428" gorn="0.5.0.0.10.0.3" style="color:#000000;stroke-linecap:round;stroke-linejoin:miter;stroke-miterlimit:4;stroke-dasharray:none;stroke-dashoffset:0;marker:none;visibility:visible;display:inline;overflow:visible;enable-background:accumulate"/>
<path d="m7.92,800.85,0,1.44" stroke-opacity="0.70652173" stroke-width="0.504" stroke="#ffffff" fill="none" id="path5430" gorn="0.5.0.0.10.0.4" style="color:#000000;stroke-linecap:round;stroke-linejoin:miter;stroke-miterlimit:4;stroke-dasharray:none;stroke-dashoffset:0;marker:none;visibility:visible;display:inline;overflow:visible;enable-background:accumulate"/>
<path d="m7.92,806.97,0,3.6" stroke-opacity="0.70652173" stroke-width="0.504" stroke="#ffffff" fill="none" id="path5432" gorn="0.5.0.0.10.0.5" style="color:#000000;stroke-linecap:round;stroke-linejoin:miter;stroke-miterlimit:4;stroke-dasharray:none;stroke-dashoffset:0;marker:none;visibility:visible;display:inline;overflow:visible;enable-background:accumulate"/>
</g>
</g>
</g>
<g transform="matrix(1, 0, 0, 1, 2.67029e-07, 7.2)">
<g>
<g stroke-opacity="0.06521738" stroke="#000000" id="g5510" gorn="0.5.0.0.11.0">
<path d="m42.48,811.29,0,-4.68m0,4.68c0,0.59648,-0.483533,1.08,-1.08,1.08m-4.68,0,4.68,0" stroke-opacity="0.06521738" stroke-width="0.36" stroke="#000000" fill="none" id="path5498" gorn="0.5.0.0.11.0.0" style="color:#000000;stroke-linecap:round;stroke-linejoin:miter;stroke-miterlimit:4;stroke-dasharray:none;stroke-dashoffset:0;marker:none;visibility:visible;display:inline;overflow:visible;enable-background:accumulate"/>
<path d="m42.48,802.29,0,-1.44" stroke-opacity="0.06521738" stroke-width="0.36" stroke="#000000" fill="none" id="path5502" gorn="0.5.0.0.11.0.1" style="color:#000000;stroke-linecap:round;stroke-linejoin:miter;stroke-miterlimit:4;stroke-dasharray:none;stroke-dashoffset:0;marker:none;visibility:visible;display:inline;overflow:visible;enable-background:accumulate"/>
<path d="m42.48,796.53,0,-1.44" stroke-opacity="0.06521738" stroke-width="0.36" stroke="#000000" fill="none" id="path5504" gorn="0.5.0.0.11.0.2" style="color:#000000;stroke-linecap:round;stroke-linejoin:miter;stroke-miterlimit:4;stroke-dasharray:none;stroke-dashoffset:0;marker:none;visibility:visible;display:inline;overflow:visible;enable-background:accumulate"/>
<path d="m42.48,790.77,0,-1.44" stroke-opacity="0.06521738" stroke-width="0.36" stroke="#000000" fill="none" id="path5506" gorn="0.5.0.0.11.0.3" style="color:#000000;stroke-linecap:round;stroke-linejoin:miter;stroke-miterlimit:4;stroke-dasharray:none;stroke-dashoffset:0;marker:none;visibility:visible;display:inline;overflow:visible;enable-background:accumulate"/>
<path d="m42.48,785.01,0,-1.44" stroke-opacity="0.06521738" stroke-width="0.36" stroke="#000000" fill="none" id="path5508" gorn="0.5.0.0.11.0.4" style="color:#000000;stroke-linecap:round;stroke-linejoin:miter;stroke-miterlimit:4;stroke-dasharray:none;stroke-dashoffset:0;marker:none;visibility:visible;display:inline;overflow:visible;enable-background:accumulate"/>
</g>
</g>
</g>
</g>
</g>
</g>
</g></g></g><g partID='66260'><line stroke-linecap='round' stroke='#8c0000' x1='154.685' y1='18' x2='154.685' y2='140.4' stroke-width='3.2' /><line stroke-linecap='round' stroke='#cc1414' x1='154.685' y1='18' x2='154.685' y2='140.4' stroke-width='1.6' /></g><g partID='66200'><line stroke-linecap='round' stroke='#8c0000' x1='154.685' y1='140.4' x2='118.685' y2='140.372' stroke-width='3.2' /><line stroke-linecap='round' stroke='#cc1414' x1='154.685' y1='140.4' x2='118.685' y2='140.372' stroke-width='1.6' /></g><g partID='66140'><line stroke-linecap='round' stroke='#8c0000' x1='118.685' y1='140.372' x2='118.915' y2='118.574' stroke-width='3.2' /><line stroke-linecap='round' stroke='#cc1414' x1='118.685' y1='140.372' x2='118.915' y2='118.574' stroke-width='1.6' /></g><g partID='66070'><line stroke-linecap='round' stroke='#8c0000' x1='169.085' y1='18' x2='154.685' y2='18' stroke-width='3.2' /><line stroke-linecap='round' stroke='#cc1414' x1='169.085' y1='18' x2='154.685' y2='18' stroke-width='1.6' /></g><g partID='66410'><line stroke-linecap='round' stroke='#666666' x1='61.0848' y1='32.4' x2='61.0859' y2='54.0001' stroke-width='3.2' /><line stroke-linecap='round' stroke='#999999' x1='61.0848' y1='32.4' x2='61.0859' y2='54.0001' stroke-width='1.6' /></g><g partID='66340'><line stroke-linecap='round' stroke='#666666' x1='169.085' y1='32.4' x2='61.0848' y2='32.4' stroke-width='3.2' /><line stroke-linecap='round' stroke='#999999' x1='169.085' y1='32.4' x2='61.0848' y2='32.4' stroke-width='1.6' /></g><g partID='66540'><line stroke-linecap='round' stroke='#00a527' x1='39.4848' y1='25.2' x2='39.4849' y2='54.0001' stroke-width='3.2' /><line stroke-linecap='round' stroke='#25cc35' x1='39.4848' y1='25.2' x2='39.4849' y2='54.0001' stroke-width='1.6' /></g><g partID='66470'><line stroke-linecap='round' stroke='#00a527' x1='169.085' y1='25.2' x2='39.4848' y2='25.2' stroke-width='3.2' /><line stroke-linecap='round' stroke='#25cc35' x1='169.085' y1='25.2' x2='39.4848' y2='25.2' stroke-width='1.6' /></g><g partID='73860'><g transform='translate(405.082,285.122)' ><g><rect x='2.8' y='2.8' width='106.4' height='30.4' fill='#ffe9c8' stroke='#fabc4f' stroke-width='5.6' /><text  x='8.8' y='20' font-family='Droid Sans' stroke='none' fill='#000000' text-anchor='left' font-size='11.2' >
</text></g></g></g><g partID='73880'><g transform='translate(405.082,285.122)' ><g><rect x='2.8' y='2.8' width='106.4' height='30.4' fill='#ffe9c8' stroke='#fabc4f' stroke-width='5.6' /><text  x='8.8' y='20' font-family='Droid Sans' stroke='none' fill='#000000' text-anchor='left' font-size='11.2' >
</text></g></g></g></svg>