<svg width="441" height="326" viewBox="0 0 441 326" fill="none" xmlns="http://www.w3.org/2000/svg">
<g id="Front">
<g id="ThreeJS">
<path id="three.JS" d="M341.442 262.11V264.188H342.888V265.844H341.442V270.063C341.442 270.375 341.502 270.599 341.622 270.735C341.742 270.87 341.971 270.938 342.31 270.938C342.56 270.938 342.781 270.919 342.974 270.883V272.594C342.531 272.729 342.075 272.797 341.606 272.797C340.023 272.797 339.216 271.998 339.185 270.399V265.844H337.95V264.188H339.185V262.11H341.442ZM346.349 265.11C346.948 264.391 347.7 264.031 348.606 264.031C350.44 264.031 351.369 265.097 351.395 267.227V272.641H349.138V267.289C349.138 266.805 349.034 266.448 348.825 266.219C348.617 265.985 348.27 265.867 347.786 265.867C347.125 265.867 346.645 266.123 346.349 266.633V272.641H344.091V260.641H346.349V265.11ZM357.849 266.305C357.541 266.263 357.27 266.242 357.036 266.242C356.182 266.242 355.622 266.531 355.356 267.11V272.641H353.099V264.188H355.231L355.294 265.196C355.747 264.419 356.375 264.031 357.177 264.031C357.427 264.031 357.661 264.065 357.88 264.133L357.849 266.305ZM362.677 272.797C361.437 272.797 360.427 272.417 359.645 271.656C358.869 270.896 358.481 269.883 358.481 268.617V268.399C358.481 267.55 358.645 266.792 358.974 266.125C359.302 265.453 359.765 264.938 360.364 264.578C360.968 264.214 361.656 264.031 362.427 264.031C363.583 264.031 364.492 264.396 365.153 265.125C365.82 265.854 366.153 266.888 366.153 268.227V269.149H360.77C360.843 269.701 361.062 270.143 361.427 270.477C361.797 270.81 362.263 270.977 362.825 270.977C363.695 270.977 364.375 270.662 364.864 270.031L365.974 271.274C365.635 271.753 365.177 272.128 364.599 272.399C364.02 272.664 363.38 272.797 362.677 272.797ZM362.419 265.86C361.971 265.86 361.606 266.011 361.325 266.313C361.049 266.615 360.872 267.047 360.794 267.61H363.935V267.43C363.924 266.93 363.789 266.544 363.528 266.274C363.268 265.998 362.898 265.86 362.419 265.86ZM371.333 272.797C370.093 272.797 369.083 272.417 368.302 271.656C367.526 270.896 367.138 269.883 367.138 268.617V268.399C367.138 267.55 367.302 266.792 367.63 266.125C367.958 265.453 368.422 264.938 369.02 264.578C369.625 264.214 370.312 264.031 371.083 264.031C372.239 264.031 373.148 264.396 373.81 265.125C374.476 265.854 374.81 266.888 374.81 268.227V269.149H369.427C369.5 269.701 369.718 270.143 370.083 270.477C370.453 270.81 370.919 270.977 371.481 270.977C372.351 270.977 373.031 270.662 373.52 270.031L374.63 271.274C374.291 271.753 373.833 272.128 373.255 272.399C372.677 272.664 372.036 272.797 371.333 272.797ZM371.075 265.86C370.627 265.86 370.263 266.011 369.981 266.313C369.705 266.615 369.528 267.047 369.45 267.61H372.591V267.43C372.58 266.93 372.445 266.544 372.185 266.274C371.924 265.998 371.554 265.86 371.075 265.86ZM376.216 271.531C376.216 271.172 376.336 270.88 376.575 270.656C376.82 270.433 377.125 270.321 377.489 270.321C377.859 270.321 378.164 270.433 378.403 270.656C378.648 270.88 378.77 271.172 378.77 271.531C378.77 271.886 378.651 272.175 378.411 272.399C378.172 272.617 377.864 272.727 377.489 272.727C377.119 272.727 376.815 272.617 376.575 272.399C376.336 272.175 376.216 271.886 376.216 271.531ZM383.145 264.188V273.102C383.145 274.034 382.898 274.758 382.403 275.274C381.909 275.794 381.195 276.055 380.263 276.055C379.872 276.055 379.5 276.011 379.145 275.922V274.133C379.416 274.18 379.653 274.203 379.856 274.203C380.539 274.203 380.88 273.841 380.88 273.117V264.188H383.145ZM380.7 262C380.7 261.662 380.812 261.383 381.036 261.164C381.265 260.946 381.575 260.836 381.966 260.836C382.356 260.836 382.664 260.946 382.888 261.164C383.117 261.383 383.231 261.662 383.231 262C383.231 262.344 383.114 262.625 382.88 262.844C382.651 263.063 382.346 263.172 381.966 263.172C381.586 263.172 381.278 263.063 381.044 262.844C380.815 262.625 380.7 262.344 380.7 262ZM389.489 270.305C389.489 270.029 389.351 269.813 389.075 269.656C388.804 269.495 388.367 269.352 387.763 269.227C385.752 268.805 384.747 267.951 384.747 266.664C384.747 265.914 385.057 265.289 385.677 264.789C386.302 264.284 387.117 264.031 388.122 264.031C389.195 264.031 390.052 264.284 390.692 264.789C391.338 265.294 391.661 265.951 391.661 266.758H389.403C389.403 266.435 389.299 266.169 389.091 265.961C388.882 265.748 388.557 265.641 388.114 265.641C387.734 265.641 387.44 265.727 387.231 265.899C387.023 266.071 386.919 266.289 386.919 266.555C386.919 266.805 387.036 267.008 387.27 267.164C387.51 267.315 387.911 267.448 388.474 267.563C389.036 267.672 389.51 267.797 389.895 267.938C391.088 268.375 391.685 269.133 391.685 270.211C391.685 270.982 391.354 271.607 390.692 272.086C390.031 272.56 389.177 272.797 388.13 272.797C387.422 272.797 386.791 272.672 386.239 272.422C385.692 272.167 385.263 271.821 384.95 271.383C384.638 270.94 384.481 270.464 384.481 269.953H386.622C386.643 270.354 386.791 270.662 387.067 270.875C387.343 271.089 387.713 271.196 388.177 271.196C388.609 271.196 388.935 271.115 389.153 270.953C389.377 270.787 389.489 270.571 389.489 270.305Z" fill="black"/>
<g id="icon 1">
<g id="Group">
<path id="Vector" fill-rule="evenodd" clip-rule="evenodd" d="M281.621 289.674L255.969 189.322L358.802 217.932L281.621 289.674Z" stroke="black" stroke-width="4" stroke-miterlimit="10" stroke-linejoin="round"/>
<path id="Vector_2" fill-rule="evenodd" clip-rule="evenodd" d="M307.367 203.63L320.183 253.821L268.796 239.511L307.367 203.63Z" stroke="black" stroke-width="4" stroke-miterlimit="10" stroke-linejoin="round"/>
<path id="Vector_3" fill-rule="evenodd" clip-rule="evenodd" d="M294.616 246.319L288.25 221.385L313.78 228.468L294.616 246.319Z" stroke="black" stroke-width="4" stroke-miterlimit="10" stroke-linejoin="round"/>
<path id="Vector_4" fill-rule="evenodd" clip-rule="evenodd" d="M281.881 196.483L288.247 221.416L262.717 214.334L281.881 196.483Z" stroke="black" stroke-width="4" stroke-miterlimit="10" stroke-linejoin="round"/>
<path id="Vector_5" fill-rule="evenodd" clip-rule="evenodd" d="M332.94 210.696L339.306 235.629L313.775 228.547L332.94 210.696Z" stroke="black" stroke-width="4" stroke-miterlimit="10" stroke-linejoin="round"/>
<path id="Vector_6" fill-rule="evenodd" clip-rule="evenodd" d="M294.619 246.336L300.985 271.269L275.454 264.187L294.619 246.336Z" stroke="black" stroke-width="4" stroke-miterlimit="10" stroke-linejoin="round"/>
</g>
</g>
</g>
<g id="Tailwindcss">
<g id="Tailwind_CSS_Logo 1">
<path id="Vector_7" d="M122.082 34.6141C97.7813 35.2741 90.5589 50.1062 88.9038 58.1415C91.0604 55.163 97.8565 48.6278 107.863 48.6278C119.524 48.6278 128.401 59.7487 133.818 63.2199C140.399 67.4372 153.623 73.0056 170.983 68.4911C184.826 64.8912 191.246 52.3346 192.65 46.3778C185.954 54.156 175.798 58.8279 163.234 53.3203C154.582 49.5276 148.112 33.9072 122.082 34.6141Z" fill="#07B6D5"/>
<path id="Vector_8" d="M87.7001 69.9052C63.3998 70.5651 56.1774 85.3972 54.5223 93.4325C56.679 90.454 63.475 83.9188 73.481 83.9188C85.1421 83.9188 94.0196 95.0397 99.4364 98.5109C106.017 102.728 119.241 108.297 136.601 103.782C150.444 100.182 156.864 87.6256 158.269 81.6688C151.573 89.447 141.416 94.1189 128.852 88.6113C120.201 84.8187 113.731 69.1982 87.7001 69.9052Z" fill="#07B6D5"/>
<path id="tailwindcss" d="M88.3833 128.469V130.547H89.8286V132.203H88.3833V136.422C88.3833 136.734 88.4432 136.958 88.563 137.094C88.6828 137.229 88.912 137.297 89.2505 137.297C89.5005 137.297 89.7219 137.279 89.9146 137.242V138.953C89.4719 139.089 89.0161 139.156 88.5474 139.156C86.964 139.156 86.1568 138.357 86.1255 136.758V132.203H84.8911V130.547H86.1255V128.469H88.3833ZM95.9849 139C95.8807 138.797 95.8052 138.544 95.7583 138.242C95.2114 138.852 94.5005 139.156 93.6255 139.156C92.7974 139.156 92.1099 138.917 91.563 138.438C91.0213 137.958 90.7505 137.354 90.7505 136.625C90.7505 135.729 91.0812 135.042 91.7427 134.562C92.4094 134.083 93.3703 133.841 94.6255 133.836H95.6646V133.352C95.6646 132.961 95.563 132.648 95.3599 132.414C95.162 132.18 94.8469 132.062 94.4146 132.062C94.0344 132.062 93.7349 132.154 93.5161 132.336C93.3026 132.518 93.1958 132.768 93.1958 133.086H90.938C90.938 132.596 91.089 132.143 91.3911 131.727C91.6932 131.31 92.1203 130.984 92.6724 130.75C93.2245 130.51 93.8443 130.391 94.5318 130.391C95.5734 130.391 96.3989 130.654 97.0083 131.18C97.6229 131.701 97.9302 132.435 97.9302 133.383V137.047C97.9354 137.849 98.0474 138.456 98.2661 138.867V139H95.9849ZM94.1177 137.43C94.451 137.43 94.7583 137.357 95.0396 137.211C95.3208 137.06 95.5291 136.859 95.6646 136.609V135.156H94.8208C93.6906 135.156 93.089 135.547 93.0161 136.328L93.0083 136.461C93.0083 136.742 93.1073 136.974 93.3052 137.156C93.5031 137.339 93.7739 137.43 94.1177 137.43ZM102.047 139H99.7818V130.547H102.047V139ZM99.6489 128.359C99.6489 128.021 99.7609 127.742 99.9849 127.523C100.214 127.305 100.524 127.195 100.915 127.195C101.3 127.195 101.607 127.305 101.836 127.523C102.066 127.742 102.18 128.021 102.18 128.359C102.18 128.703 102.063 128.984 101.829 129.203C101.599 129.422 101.295 129.531 100.915 129.531C100.534 129.531 100.227 129.422 99.9927 129.203C99.7635 128.984 99.6489 128.703 99.6489 128.359ZM106.297 139H104.032V127H106.297V139ZM115.516 135.93L116.626 130.547H118.805L116.649 139H114.758L113.157 133.68L111.555 139H109.672L107.516 130.547H109.696L110.797 135.922L112.344 130.547H113.977L115.516 135.93ZM122.313 139H120.047V130.547H122.313V139ZM119.915 128.359C119.915 128.021 120.027 127.742 120.251 127.523C120.48 127.305 120.79 127.195 121.18 127.195C121.566 127.195 121.873 127.305 122.102 127.523C122.331 127.742 122.446 128.021 122.446 128.359C122.446 128.703 122.329 128.984 122.094 129.203C121.865 129.422 121.56 129.531 121.18 129.531C120.8 129.531 120.493 129.422 120.258 129.203C120.029 128.984 119.915 128.703 119.915 128.359ZM126.258 130.547L126.329 131.523C126.933 130.768 127.743 130.391 128.758 130.391C129.654 130.391 130.321 130.654 130.758 131.18C131.196 131.706 131.42 132.492 131.43 133.539V139H129.172V133.594C129.172 133.115 129.068 132.768 128.86 132.555C128.652 132.336 128.305 132.227 127.821 132.227C127.185 132.227 126.709 132.497 126.391 133.039V139H124.133V130.547H126.258ZM132.797 134.711C132.797 133.393 133.092 132.344 133.68 131.562C134.274 130.781 135.084 130.391 136.11 130.391C136.933 130.391 137.612 130.698 138.149 131.312V127H140.415V139H138.376L138.266 138.102C137.704 138.805 136.98 139.156 136.094 139.156C135.099 139.156 134.3 138.766 133.696 137.984C133.097 137.198 132.797 136.107 132.797 134.711ZM135.055 134.875C135.055 135.667 135.193 136.273 135.469 136.695C135.745 137.117 136.146 137.328 136.672 137.328C137.37 137.328 137.862 137.034 138.149 136.445V133.109C137.868 132.521 137.381 132.227 136.688 132.227C135.599 132.227 135.055 133.109 135.055 134.875ZM145.68 137.336C146.097 137.336 146.435 137.221 146.696 136.992C146.956 136.763 147.092 136.458 147.102 136.078H149.219C149.214 136.651 149.058 137.177 148.751 137.656C148.443 138.13 148.021 138.5 147.485 138.766C146.954 139.026 146.365 139.156 145.719 139.156C144.511 139.156 143.558 138.773 142.86 138.008C142.162 137.237 141.813 136.174 141.813 134.82V134.672C141.813 133.37 142.159 132.331 142.852 131.555C143.545 130.779 144.495 130.391 145.704 130.391C146.761 130.391 147.607 130.693 148.243 131.297C148.883 131.896 149.209 132.695 149.219 133.695H147.102C147.092 133.258 146.956 132.904 146.696 132.633C146.435 132.357 146.092 132.219 145.665 132.219C145.139 132.219 144.74 132.411 144.469 132.797C144.204 133.177 144.071 133.797 144.071 134.656V134.891C144.071 135.76 144.204 136.385 144.469 136.766C144.735 137.146 145.139 137.336 145.68 137.336ZM155.086 136.664C155.086 136.388 154.948 136.172 154.672 136.016C154.402 135.854 153.964 135.711 153.36 135.586C151.349 135.164 150.344 134.31 150.344 133.023C150.344 132.273 150.654 131.648 151.274 131.148C151.899 130.643 152.714 130.391 153.719 130.391C154.792 130.391 155.649 130.643 156.29 131.148C156.935 131.654 157.258 132.31 157.258 133.117H155.001C155.001 132.794 154.896 132.529 154.688 132.32C154.48 132.107 154.154 132 153.711 132C153.331 132 153.037 132.086 152.829 132.258C152.62 132.43 152.516 132.648 152.516 132.914C152.516 133.164 152.633 133.367 152.868 133.523C153.107 133.674 153.508 133.807 154.071 133.922C154.633 134.031 155.107 134.156 155.493 134.297C156.685 134.734 157.282 135.492 157.282 136.57C157.282 137.341 156.951 137.966 156.29 138.445C155.628 138.919 154.774 139.156 153.727 139.156C153.019 139.156 152.389 139.031 151.836 138.781C151.29 138.526 150.86 138.18 150.547 137.742C150.235 137.299 150.079 136.823 150.079 136.312H152.219C152.24 136.714 152.389 137.021 152.665 137.234C152.941 137.448 153.31 137.555 153.774 137.555C154.206 137.555 154.532 137.474 154.751 137.312C154.974 137.146 155.086 136.93 155.086 136.664ZM163.321 136.664C163.321 136.388 163.183 136.172 162.907 136.016C162.636 135.854 162.198 135.711 161.594 135.586C159.584 135.164 158.579 134.31 158.579 133.023C158.579 132.273 158.889 131.648 159.508 131.148C160.133 130.643 160.948 130.391 161.954 130.391C163.027 130.391 163.883 130.643 164.524 131.148C165.17 131.654 165.493 132.31 165.493 133.117H163.235C163.235 132.794 163.131 132.529 162.922 132.32C162.714 132.107 162.389 132 161.946 132C161.566 132 161.271 132.086 161.063 132.258C160.855 132.43 160.751 132.648 160.751 132.914C160.751 133.164 160.868 133.367 161.102 133.523C161.342 133.674 161.743 133.807 162.305 133.922C162.868 134.031 163.342 134.156 163.727 134.297C164.92 134.734 165.516 135.492 165.516 136.57C165.516 137.341 165.185 137.966 164.524 138.445C163.862 138.919 163.008 139.156 161.961 139.156C161.253 139.156 160.623 139.031 160.071 138.781C159.524 138.526 159.094 138.18 158.782 137.742C158.469 137.299 158.313 136.823 158.313 136.312H160.454C160.474 136.714 160.623 137.021 160.899 137.234C161.175 137.448 161.545 137.555 162.008 137.555C162.441 137.555 162.766 137.474 162.985 137.312C163.209 137.146 163.321 136.93 163.321 136.664Z" fill="black"/>
</g>
</g>
<g id="Internet">
<path id="Internet_2" d="M292.696 154.844H290.352V143.469H292.696V154.844ZM296.805 146.39L296.875 147.367C297.479 146.612 298.289 146.234 299.305 146.234C300.201 146.234 300.867 146.497 301.305 147.023C301.742 147.549 301.966 148.336 301.977 149.383V154.844H299.719V149.437C299.719 148.958 299.615 148.612 299.407 148.398C299.198 148.18 298.852 148.07 298.367 148.07C297.732 148.07 297.255 148.341 296.938 148.883V154.844H294.68V146.39H296.805ZM306.399 144.312V146.39H307.844V148.047H306.399V152.265C306.399 152.578 306.459 152.802 306.578 152.937C306.698 153.073 306.927 153.14 307.266 153.14C307.516 153.14 307.737 153.122 307.93 153.086V154.797C307.487 154.932 307.032 155 306.563 155C304.979 155 304.172 154.2 304.141 152.601V148.047H302.907V146.39H304.141V144.312H306.399ZM312.992 155C311.753 155 310.742 154.62 309.961 153.859C309.185 153.099 308.797 152.086 308.797 150.82V150.601C308.797 149.752 308.961 148.995 309.289 148.328C309.617 147.656 310.081 147.14 310.68 146.781C311.284 146.417 311.972 146.234 312.742 146.234C313.899 146.234 314.808 146.599 315.469 147.328C316.136 148.057 316.469 149.091 316.469 150.43V151.351H311.086C311.159 151.903 311.378 152.346 311.742 152.68C312.112 153.013 312.578 153.18 313.141 153.18C314.011 153.18 314.69 152.864 315.18 152.234L316.289 153.476C315.951 153.956 315.492 154.331 314.914 154.601C314.336 154.867 313.696 155 312.992 155ZM312.735 148.062C312.287 148.062 311.922 148.213 311.641 148.515C311.365 148.818 311.188 149.25 311.11 149.812H314.25V149.633C314.24 149.133 314.104 148.747 313.844 148.476C313.584 148.2 313.214 148.062 312.735 148.062ZM322.508 148.508C322.201 148.466 321.93 148.445 321.696 148.445C320.841 148.445 320.282 148.734 320.016 149.312V154.844H317.758V146.39H319.891L319.953 147.398C320.407 146.622 321.034 146.234 321.836 146.234C322.086 146.234 322.321 146.268 322.539 146.336L322.508 148.508ZM325.68 146.39L325.75 147.367C326.354 146.612 327.164 146.234 328.18 146.234C329.076 146.234 329.742 146.497 330.18 147.023C330.617 147.549 330.841 148.336 330.852 149.383V154.844H328.594V149.437C328.594 148.958 328.49 148.612 328.282 148.398C328.073 148.18 327.727 148.07 327.242 148.07C326.607 148.07 326.13 148.341 325.813 148.883V154.844H323.555V146.39H325.68ZM336.461 155C335.222 155 334.211 154.62 333.43 153.859C332.654 153.099 332.266 152.086 332.266 150.82V150.601C332.266 149.752 332.43 148.995 332.758 148.328C333.086 147.656 333.55 147.14 334.149 146.781C334.753 146.417 335.44 146.234 336.211 146.234C337.367 146.234 338.276 146.599 338.938 147.328C339.604 148.057 339.938 149.091 339.938 150.43V151.351H334.555C334.628 151.903 334.847 152.346 335.211 152.68C335.581 153.013 336.047 153.18 336.61 153.18C337.479 153.18 338.159 152.864 338.649 152.234L339.758 153.476C339.42 153.956 338.961 154.331 338.383 154.601C337.805 154.867 337.164 155 336.461 155ZM336.203 148.062C335.755 148.062 335.391 148.213 335.11 148.515C334.834 148.818 334.657 149.25 334.578 149.812H337.719V149.633C337.709 149.133 337.573 148.747 337.313 148.476C337.052 148.2 336.683 148.062 336.203 148.062ZM343.93 144.312V146.39H345.375V148.047H343.93V152.265C343.93 152.578 343.99 152.802 344.11 152.937C344.229 153.073 344.459 153.14 344.797 153.14C345.047 153.14 345.269 153.122 345.461 153.086V154.797C345.019 154.932 344.563 155 344.094 155C342.511 155 341.703 154.2 341.672 152.601V148.047H340.438V146.39H341.672V144.312H343.93Z" fill="black"/>
<g id="internet-svgrepo-com 1" clip-path="url(#clip0_4:126)">
<path id="Vector_9" d="M371.92 104.341C381.159 94.6588 386.787 81.9309 386.787 67.9987C386.787 53.503 380.696 40.3138 370.781 30.4994V30.4975C370.773 30.4861 370.761 30.4824 370.755 30.4729C360.427 20.2653 345.958 13.7311 329.865 13.2188L329.862 13.2169L328.714 13.1885C328.417 13.1791 328.12 13.1696 327.821 13.1696C327.522 13.1696 327.225 13.1791 326.928 13.1885L325.784 13.2169L325.782 13.2188C309.688 13.7311 295.219 20.2653 284.891 30.4729C284.883 30.4824 284.871 30.4861 284.865 30.4975C284.865 30.4975 284.865 30.4994 284.863 30.5013C274.946 40.3138 268.855 53.503 268.855 67.9987C268.855 81.9309 274.483 94.6588 283.722 104.341C283.734 104.358 283.734 104.377 283.749 104.394C283.785 104.441 283.838 104.464 283.877 104.507C294.259 115.299 309.155 122.251 325.78 122.78L325.782 122.782L326.926 122.811C327.225 122.818 327.522 122.828 327.821 122.828C328.12 122.828 328.417 122.818 328.714 122.809L329.858 122.78L329.86 122.779C346.503 122.247 361.416 115.282 371.798 104.468C371.824 104.435 371.867 104.426 371.891 104.392C371.908 104.377 371.908 104.358 371.92 104.341ZM272.972 69.8893H297.378C297.608 77.9038 299.291 85.6914 302.289 92.9875C296.506 94.9329 290.977 97.5421 285.796 100.798C278.177 92.3711 273.436 81.6303 272.972 69.8893ZM286.906 34.0103C291.965 37.0694 297.352 39.5197 302.97 41.3499C299.529 49.1148 297.626 57.4866 297.378 66.108H272.972C273.458 53.8055 278.639 42.6034 286.906 34.0103ZM382.67 66.108H358.264C358.016 57.4866 356.113 49.1148 352.672 41.3499C358.29 39.5197 363.677 37.0694 368.736 34.0103C377.003 42.6034 382.184 53.8055 382.67 66.108ZM325.788 41.4595C319.909 41.3045 314.139 40.4896 308.563 39.0338C312.685 31.1724 318.504 24.0768 325.788 18.1685V41.4595ZM325.788 45.2408V66.108H301.445C301.695 57.8874 303.549 49.9145 306.866 42.5221C312.978 44.1688 319.324 45.0801 325.788 45.2408ZM329.854 45.2408C336.318 45.0801 342.664 44.1707 348.778 42.5221C352.095 49.9145 353.949 57.8874 354.199 66.108H329.854V45.2408ZM329.854 41.4595V18.1685C337.138 24.0768 342.957 31.1724 347.079 39.0338C341.503 40.4896 335.733 41.3045 329.854 41.4595ZM351.019 37.8843C347.113 30.2744 341.692 23.3413 334.98 17.399C346.887 18.8473 357.601 23.8537 365.852 31.2348C361.168 33.999 356.198 36.2224 351.019 37.8843ZM304.623 37.8843C299.444 36.2224 294.474 33.999 289.792 31.2348C298.041 23.8537 308.757 18.8473 320.664 17.399C313.95 23.3413 308.529 30.2744 304.623 37.8843ZM301.445 69.8893H325.788V88.8677C319.063 89.0341 312.476 90.0097 306.144 91.7812C303.283 84.8709 301.674 77.4879 301.445 69.8893ZM325.788 92.649V117.829C317.992 111.505 311.88 103.821 307.724 95.2978C313.553 93.7002 319.608 92.8116 325.788 92.649ZM329.854 117.829V92.649C336.034 92.8097 342.089 93.7002 347.918 95.296C343.762 103.821 337.65 111.505 329.854 117.829ZM329.854 88.8677V69.8893H354.197C353.968 77.4879 352.359 84.8709 349.496 91.7831C343.167 90.0097 336.579 89.0341 329.854 88.8677ZM358.264 69.8893H382.67C382.206 81.6303 377.467 92.3711 369.846 100.798C364.665 97.5421 359.136 94.9329 353.353 92.9875C356.353 85.6914 358.034 77.9038 358.264 69.8893ZM288.56 103.63C293.37 100.658 298.492 98.2681 303.844 96.4814C307.799 104.725 313.476 112.236 320.662 118.598C308.155 117.076 296.961 111.631 288.56 103.63ZM334.98 118.598C342.166 112.238 347.843 104.727 351.798 96.4814C357.15 98.2681 362.27 100.658 367.082 103.63C358.681 111.631 347.487 117.076 334.98 118.598Z" fill="black"/>
</g>
</g>
<rect id="Rectangle 4" x="1.31302" y="0.5" width="433.491" height="325" fill="#C4C4C4" fill-opacity="0.13" stroke="black" stroke-dasharray="10 10"/>
<g id="javascript-svgrepo-com 1" clip-path="url(#clip1_4:126)">
<path id="Vector_10" d="M167.957 191.57H59.7109C59.6934 191.57 59.6792 191.582 59.6792 191.597V284.46C59.6792 284.475 59.6934 284.487 59.7109 284.487H167.957C167.974 284.487 167.988 284.475 167.988 284.46V191.597C167.988 191.582 167.974 191.57 167.957 191.57Z" fill="#F7DF1E"/>
<path id="Vector_11" d="M128.219 258.717C130.334 261.802 133.296 263.98 138.161 263.98C142.392 263.98 145.142 262.165 145.142 259.624C145.142 256.721 142.392 255.632 137.738 253.817L135.199 252.91C127.796 250.188 122.93 246.921 122.93 239.843C122.93 233.31 128.642 228.229 137.738 228.229C144.296 228.229 148.95 230.225 152.123 235.306L144.296 239.662C142.603 236.94 140.7 235.851 137.738 235.851C134.776 235.851 132.873 237.484 132.873 239.662C132.873 242.202 134.776 243.291 139.219 244.925L141.757 245.832C150.43 249.099 155.296 252.184 155.296 259.624C155.296 267.428 148.104 271.783 138.373 271.783C128.853 271.783 122.719 267.972 119.757 262.891L128.219 258.717ZM92.2566 259.443C93.9489 261.802 95.2182 263.98 98.8144 263.98C102.199 263.98 104.314 262.891 104.314 258.536V228.41H114.468V258.173C114.468 267.246 108.334 271.239 99.2375 271.239C90.9873 271.239 86.3334 267.609 84.0065 263.254L92.2566 259.443Z" fill="black"/>
</g>
</g>
<defs>
<clipPath id="clip0_4:126">
<rect width="117.933" height="109.658" fill="white" transform="translate(268.855 13.1696)"/>
</clipPath>
<clipPath id="clip1_4:126">
<rect width="108.309" height="92.9169" fill="white" transform="translate(59.6792 191.57)"/>
</clipPath>
</defs>
</svg>
