<svg width="535" height="446" viewBox="0 0 535 446" fill="none" xmlns="http://www.w3.org/2000/svg">
<g id="Microcontroller">
<rect id="Rectangle 3" x="1.31302" y="0.5" width="533" height="445" fill="#C4C4C4" fill-opacity="0.17" stroke="black" stroke-dasharray="10 10"/>
<path id="Line 3" d="M267.607 225.475L277.607 231.249V219.702L267.607 225.475ZM356.538 225.475L346.538 219.702V231.249L356.538 225.475ZM276.607 226.475H347.538V224.475H276.607V226.475Z" fill="black"/>
<path id="Line 4" d="M239.61 67.1946L249.685 72.8597L249.533 61.3136L239.61 67.1946ZM369.714 65.7902L359.639 60.1252L359.79 71.6712L369.714 65.7902ZM248.622 68.0974L360.728 66.8873L360.702 64.8875L248.596 66.0975L248.622 68.0974Z" fill="black"/>
<g id="DHT11">
<g id="DHT11_847d8ef39597b070f569f588f3b01a09_1_breadboard 1">
<path id="Vector" d="M501.504 268.395V190.974C501.504 188.598 499.66 186.673 497.386 186.673H405.161C402.887 186.673 401.044 188.598 401.044 190.974V268.395C401.044 270.771 402.887 272.697 405.161 272.697H497.386C499.66 272.697 501.504 270.771 501.504 268.395Z" fill="#343434" stroke="black" stroke-width="0.18"/>
<path id="Vector_2" d="M401.044 215.06V209.899H368.107V215.06H401.044Z" fill="#B3B3B3"/>
<path id="Vector_3" d="M401.044 232.265V227.104H368.107V232.265H401.044Z" fill="#B3B3B3"/>
<path id="Vector_4" d="M401.044 249.47V244.309H368.107V249.47H401.044Z" fill="#B3B3B3"/>
<path id="Vector_5" d="M489.152 238.287V197.856H433.982V238.287H489.152Z" fill="#D7F4EE" fill-opacity="0.63587" stroke="black" stroke-width="0.286366" stroke-linecap="round"/>
<path id="Vector_6" d="M499.857 267.605V191.764C499.857 189.902 498.412 188.393 496.63 188.393H405.918C404.136 188.393 402.691 189.902 402.691 191.764V267.605C402.691 269.467 404.136 270.976 405.918 270.976H496.63C498.412 270.976 499.857 269.467 499.857 267.605Z" stroke="#316691" stroke-width="1.8" stroke-linecap="round"/>
<path id="Vector_7" fill-rule="evenodd" clip-rule="evenodd" d="M501.493 190.974C501.493 188.591 499.656 186.673 497.375 186.673H476.79V203.877H470.214V186.673H463.637V203.877H457.061V186.673H450.428V203.877H443.852V186.673H437.276V203.877H430.7V186.673H424.124V203.877H417.491V186.673H405.139C402.858 186.673 401.022 188.591 401.022 190.974V268.395C401.022 270.778 402.858 272.697 405.139 272.697H417.491V255.492H424.124V272.697H430.7V255.492H437.276V272.697H443.852V255.492H450.428V272.697H457.061V255.492H463.637V272.697H470.214V255.492H476.79V272.697H497.375C499.656 272.697 501.493 270.778 501.493 268.395V246.889H485.024V240.019H501.493V233.149H485.024V226.22H501.493V219.35H485.024V212.48H501.493V190.974ZM476.79 212.48V219.35H470.214V212.48H476.79ZM476.79 226.22V233.149H470.214V226.22H476.79ZM476.79 240.019V246.889H470.214V240.019H476.79ZM463.637 212.48V219.35H457.061V212.48H463.637ZM463.637 226.22V233.149H457.061V226.22H463.637ZM463.637 240.019V246.889H457.061V240.019H463.637ZM450.428 212.48V219.35H443.852V212.48H450.428ZM450.428 226.22V233.149H443.852V226.22H450.428ZM450.428 240.019V246.889H443.852V240.019H450.428ZM437.276 212.48V219.35H430.7V212.48H437.276ZM437.276 226.22V233.149H430.7V226.22H437.276ZM437.276 240.019V246.889H430.7V240.019H437.276ZM424.124 212.48V219.35H417.491V212.48H424.124ZM424.124 226.22V233.149H417.491V226.22H424.124ZM424.124 240.019V246.889H417.491V240.019H424.124Z" fill="#48A1D1" stroke="black" stroke-width="0.18"/>
<path id="Vector_8" d="M478.447 188.393H497.386H478.447ZM499.857 190.974V209.039V190.974ZM497.386 188.393C498.751 188.393 499.857 189.549 499.857 190.974L497.386 188.393Z" stroke="white" stroke-opacity="0.706522" stroke-width="0.63" stroke-linecap="round"/>
<path id="Vector_9" d="M468.566 188.393H465.272" stroke="white" stroke-opacity="0.706522" stroke-width="0.63" stroke-linecap="round"/>
<path id="Vector_10" d="M455.391 188.393H452.097" stroke="white" stroke-opacity="0.706522" stroke-width="0.63" stroke-linecap="round"/>
<path id="Vector_11" d="M442.216 188.393H438.922" stroke="white" stroke-opacity="0.706522" stroke-width="0.63" stroke-linecap="round"/>
<path id="Vector_12" d="M429.041 188.393H425.747" stroke="white" stroke-opacity="0.706522" stroke-width="0.63" stroke-linecap="round"/>
<path id="Vector_13" d="M415.043 188.393H406.808" stroke="white" stroke-opacity="0.706522" stroke-width="0.63" stroke-linecap="round"/>
<path id="Vector_14" d="M402.691 257.212V268.395V257.212ZM405.161 270.976H415.866H405.161ZM405.161 270.976C403.797 270.976 402.691 269.821 402.691 268.395L405.161 270.976Z" stroke="black" stroke-opacity="0.0652174" stroke-width="0.45" stroke-linecap="round"/>
<path id="Vector_15" d="M425.747 270.976H429.041" stroke="black" stroke-opacity="0.0652174" stroke-width="0.45" stroke-linecap="round"/>
<path id="Vector_16" d="M438.922 270.976H442.216" stroke="black" stroke-opacity="0.0652174" stroke-width="0.45" stroke-linecap="round"/>
<path id="Vector_17" d="M452.097 270.976H455.391" stroke="black" stroke-opacity="0.0652174" stroke-width="0.45" stroke-linecap="round"/>
<path id="Vector_18" d="M465.272 270.976H468.566" stroke="black" stroke-opacity="0.0652174" stroke-width="0.45" stroke-linecap="round"/>
</g>
<path id="DHT11 Sensor" d="M405.227 300.034V290.081H408.289C409.164 290.081 409.946 290.279 410.634 290.675C411.327 291.067 411.867 291.628 412.254 292.357C412.641 293.082 412.835 293.907 412.835 294.832V295.29C412.835 296.215 412.644 297.037 412.261 297.757C411.883 298.477 411.347 299.036 410.654 299.432C409.962 299.829 409.18 300.029 408.31 300.034H405.227ZM407.277 291.742V298.386H408.269C409.071 298.386 409.684 298.124 410.108 297.6C410.531 297.076 410.748 296.326 410.757 295.351V294.825C410.757 293.813 410.547 293.047 410.128 292.528C409.709 292.004 409.096 291.742 408.289 291.742H407.277ZM422.433 300.034H420.382V295.768H416.383V300.034H414.332V290.081H416.383V294.114H420.382V290.081H422.433V300.034ZM431.518 291.742H428.469V300.034H426.418V291.742H423.41V290.081H431.518V291.742ZM437.28 300.034H435.305V292.419L432.946 293.15V291.544L437.069 290.067H437.28V300.034ZM445.319 300.034H443.344V292.419L440.986 293.15V291.544L445.108 290.067H445.319V300.034ZM457.419 297.422C457.419 297.035 457.282 296.739 457.009 296.534C456.736 296.324 456.243 296.105 455.532 295.878C454.821 295.645 454.259 295.417 453.844 295.194C452.714 294.583 452.149 293.761 452.149 292.726C452.149 292.188 452.299 291.71 452.6 291.291C452.905 290.867 453.34 290.536 453.905 290.299C454.475 290.062 455.113 289.944 455.819 289.944C456.53 289.944 457.164 290.074 457.72 290.334C458.276 290.589 458.707 290.951 459.012 291.421C459.322 291.89 459.477 292.423 459.477 293.02H457.426C457.426 292.564 457.282 292.211 456.995 291.961C456.708 291.705 456.305 291.578 455.785 291.578C455.284 291.578 454.894 291.685 454.616 291.899C454.338 292.109 454.199 292.387 454.199 292.733C454.199 293.057 454.361 293.328 454.685 293.547C455.013 293.765 455.494 293.97 456.127 294.162C457.294 294.513 458.144 294.948 458.677 295.467C459.21 295.987 459.477 296.634 459.477 297.409C459.477 298.27 459.151 298.947 458.499 299.439C457.847 299.927 456.97 300.171 455.867 300.171C455.102 300.171 454.404 300.032 453.776 299.754C453.147 299.471 452.666 299.086 452.333 298.598C452.005 298.111 451.841 297.546 451.841 296.903H453.899C453.899 298.001 454.555 298.55 455.867 298.55C456.355 298.55 456.736 298.452 457.009 298.256C457.282 298.056 457.419 297.778 457.419 297.422ZM464.146 300.171C463.061 300.171 462.177 299.838 461.493 299.172C460.814 298.507 460.475 297.621 460.475 296.513V296.322C460.475 295.579 460.618 294.916 460.905 294.333C461.193 293.745 461.598 293.294 462.122 292.979C462.651 292.66 463.252 292.501 463.927 292.501C464.939 292.501 465.734 292.82 466.313 293.458C466.896 294.096 467.188 295 467.188 296.172V296.978H462.478C462.541 297.461 462.733 297.849 463.052 298.14C463.375 298.432 463.783 298.578 464.276 298.578C465.037 298.578 465.631 298.302 466.06 297.751L467.03 298.838C466.734 299.257 466.333 299.585 465.827 299.822C465.321 300.054 464.761 300.171 464.146 300.171ZM463.92 294.1C463.528 294.1 463.209 294.232 462.963 294.497C462.722 294.761 462.567 295.139 462.498 295.631H465.246V295.474C465.237 295.037 465.119 294.7 464.891 294.463C464.663 294.221 464.339 294.1 463.92 294.1ZM470.134 292.637L470.195 293.492C470.724 292.831 471.433 292.501 472.321 292.501C473.105 292.501 473.689 292.731 474.071 293.191C474.454 293.651 474.65 294.339 474.659 295.255V300.034H472.684V295.303C472.684 294.884 472.593 294.581 472.41 294.394C472.228 294.203 471.925 294.107 471.501 294.107C470.945 294.107 470.528 294.344 470.25 294.818V300.034H468.275V292.637H470.134ZM480.169 297.99C480.169 297.748 480.048 297.559 479.807 297.422C479.57 297.281 479.187 297.156 478.658 297.047C476.899 296.677 476.02 295.93 476.02 294.804C476.02 294.148 476.291 293.601 476.833 293.164C477.38 292.722 478.093 292.501 478.973 292.501C479.912 292.501 480.661 292.722 481.222 293.164C481.787 293.606 482.069 294.18 482.069 294.886H480.094C480.094 294.604 480.003 294.371 479.82 294.189C479.638 294.002 479.353 293.909 478.966 293.909C478.633 293.909 478.376 293.984 478.194 294.134C478.011 294.285 477.92 294.476 477.92 294.709C477.92 294.927 478.023 295.105 478.228 295.242C478.437 295.374 478.788 295.49 479.28 295.59C479.773 295.686 480.187 295.796 480.525 295.919C481.568 296.301 482.09 296.964 482.09 297.908C482.09 298.582 481.801 299.129 481.222 299.548C480.643 299.963 479.896 300.171 478.98 300.171C478.36 300.171 477.808 300.061 477.325 299.842C476.847 299.619 476.471 299.316 476.197 298.933C475.924 298.546 475.787 298.129 475.787 297.682H477.66C477.679 298.033 477.808 298.302 478.05 298.489C478.291 298.676 478.615 298.769 479.021 298.769C479.399 298.769 479.684 298.699 479.875 298.557C480.071 298.411 480.169 298.222 480.169 297.99ZM483.061 296.267C483.061 295.533 483.202 294.88 483.485 294.305C483.767 293.731 484.173 293.287 484.701 292.972C485.235 292.658 485.852 292.501 486.554 292.501C487.552 292.501 488.365 292.806 488.994 293.417C489.628 294.027 489.981 294.857 490.054 295.905L490.068 296.411C490.068 297.546 489.751 298.457 489.117 299.145C488.484 299.829 487.634 300.171 486.568 300.171C485.501 300.171 484.649 299.829 484.011 299.145C483.377 298.462 483.061 297.532 483.061 296.356V296.267ZM485.036 296.411C485.036 297.113 485.168 297.65 485.433 298.024C485.697 298.393 486.075 298.578 486.568 298.578C487.046 298.578 487.42 298.395 487.689 298.031C487.958 297.662 488.092 297.074 488.092 296.267C488.092 295.579 487.958 295.046 487.689 294.668C487.42 294.289 487.041 294.1 486.554 294.1C486.071 294.1 485.697 294.289 485.433 294.668C485.168 295.041 485.036 295.622 485.036 296.411ZM495.441 294.49C495.172 294.453 494.935 294.435 494.73 294.435C493.982 294.435 493.492 294.688 493.26 295.194V300.034H491.284V292.637H493.151L493.205 293.519C493.602 292.84 494.151 292.501 494.853 292.501C495.071 292.501 495.277 292.53 495.468 292.589L495.441 294.49Z" fill="black"/>
</g>
<g id="microphone-svgrepo-com 1" clip-path="url(#clip0_3:67)">
<g id="Group">
<path id="Vector_19" d="M424.513 96.1287V78.3002C424.513 76.8131 425.785 75.6075 427.354 75.6075C428.922 75.6075 430.194 76.813 430.194 78.3002V96.1287H424.513Z" fill="#333E48"/>
<path id="Vector_20" d="M443.829 64.1191C443.829 72.7442 436.453 79.7363 427.354 79.7363C418.254 79.7363 410.878 72.7442 410.878 64.1191V45.4816C410.878 36.8564 418.254 29.8643 427.354 29.8643C436.453 29.8643 443.829 36.8564 443.829 45.4814V64.1191Z" fill="#7D868C"/>
<path id="Vector_21" opacity="0.1" d="M440.47 36.0315L410.878 64.0821V64.1191C410.878 70.9577 415.516 76.769 421.972 78.8832L443.829 58.1647V45.4814C443.829 41.9295 442.577 38.6552 440.47 36.0315Z" fill="white"/>
<path id="Vector_22" d="M417.969 53.2124H410.878V56.3882H417.969C418.894 56.3882 419.644 55.6771 419.644 54.8002C419.644 53.9234 418.894 53.2124 417.969 53.2124ZM419.644 47.0933C419.644 46.2166 418.894 45.5057 417.969 45.5057H410.878V48.6813H417.969C418.894 48.6812 419.644 47.9703 419.644 47.0933ZM417.969 60.9194H410.878V64.0948H417.969C418.894 64.0948 419.644 63.384 419.644 62.507C419.644 61.6303 418.894 60.9194 417.969 60.9194Z" fill="#333E48"/>
<path id="Vector_23" d="M435.063 54.8002C435.063 55.6772 435.813 56.3882 436.738 56.3882H443.829V53.2124H436.738C435.813 53.2124 435.063 53.9234 435.063 54.8002ZM436.738 48.6812H443.829V45.5055H436.738C435.813 45.5055 435.063 46.2164 435.063 47.0932C435.063 47.9703 435.813 48.6812 436.738 48.6812ZM435.063 62.5071C435.063 63.384 435.813 64.0949 436.738 64.0949H443.829V60.9194H436.738C435.813 60.9194 435.063 61.6303 435.063 62.5071Z" fill="#333E48"/>
<path id="Vector_24" d="M427.354 85.9635C414.632 85.9635 404.283 76.1531 404.283 64.0949C404.283 63.0044 405.216 62.1203 406.366 62.1203C407.517 62.1203 408.449 63.0044 408.449 64.0949C408.449 73.9757 416.93 82.0144 427.354 82.0144C437.777 82.0144 446.258 73.9757 446.258 64.0949C446.258 63.0044 447.191 62.1203 448.341 62.1203C449.491 62.1203 450.424 63.0044 450.424 64.0949C450.424 76.1533 440.075 85.9635 427.354 85.9635Z" fill="#1E252B"/>
<path id="Vector_25" d="M440.649 98.552C440.649 95.8753 438.36 93.7054 435.536 93.7054H419.171C416.347 93.7054 414.058 95.8753 414.058 98.552H440.649Z" fill="#1E252B"/>
</g>
</g>
<g id="esp8266">
<g id="esp">
<g id="microchip-svgrepo-com 1">
<g id="Group_2">
<g id="Group_3">
<path id="Vector_26" d="M176.388 227.764L176.352 227.745H127.649L127.613 227.764V274.229L127.649 274.252H176.352L176.388 274.229V227.764Z" fill="#010002"/>
<g id="Group_4">
<path id="Vector_27" d="M183.363 235.946H192.085C193.695 235.946 195 234.701 195 233.175C195 231.648 193.699 230.4 192.085 230.4H183.363C181.753 230.4 180.453 231.64 180.453 233.171C180.453 234.701 181.753 235.946 183.363 235.946Z" fill="#010002"/>
<path id="Vector_28" d="M192.082 242.278H183.36C181.754 242.278 180.453 243.525 180.453 245.052C180.453 246.579 181.754 247.826 183.363 247.826H192.085C193.695 247.826 195 246.582 195 245.052C195 243.522 193.696 242.278 192.082 242.278Z" fill="#010002"/>
<path id="Vector_29" d="M192.082 254.165H183.36C181.75 254.165 180.45 255.409 180.45 256.939C180.45 258.474 181.75 259.718 183.36 259.718H192.082C193.692 259.718 194.997 258.474 194.997 256.939C194.997 255.412 193.696 254.165 192.082 254.165Z" fill="#010002"/>
<path id="Vector_30" d="M192.082 266.055H183.36C181.754 266.055 180.453 267.295 180.453 268.827C180.453 270.358 181.754 271.601 183.363 271.601H192.085C193.695 271.601 195 270.357 195 268.827C195 267.296 193.696 266.055 192.082 266.055Z" fill="#010002"/>
</g>
<g id="Group_5">
<path id="Vector_31" d="M136.209 221.097V212.781C136.209 211.246 134.909 210.006 133.303 210.006C131.693 210.006 130.388 211.246 130.388 212.781V221.097C130.388 222.632 131.693 223.872 133.303 223.872C134.909 223.869 136.209 222.629 136.209 221.097Z" fill="#010002"/>
<path id="Vector_32" d="M142.859 212.777V221.093C142.859 222.628 144.164 223.868 145.769 223.868C147.374 223.868 148.675 222.628 148.675 221.093V212.777C148.675 211.242 147.375 210.002 145.769 210.002C144.163 210.002 142.859 211.246 142.859 212.777Z" fill="#010002"/>
<path id="Vector_33" d="M155.325 212.777V221.093C155.325 222.628 156.625 223.868 158.231 223.868C159.837 223.868 161.146 222.628 161.146 221.093V212.777C161.146 211.242 159.837 210.002 158.231 210.002C156.625 210.002 155.325 211.246 155.325 212.777Z" fill="#010002"/>
<path id="Vector_34" d="M167.791 212.777V221.093C167.791 222.628 169.091 223.868 170.697 223.868C172.307 223.868 173.612 222.628 173.612 221.093V212.777C173.612 211.242 172.307 210.002 170.697 210.002C169.092 209.998 167.791 211.246 167.791 212.777Z" fill="#010002"/>
</g>
<g id="Group_6">
<path id="Vector_35" d="M136.209 289.223V280.907C136.209 279.372 134.909 278.128 133.303 278.128C131.693 278.128 130.388 279.368 130.388 280.907V289.223C130.388 290.758 131.693 291.995 133.303 291.995C134.909 291.995 136.209 290.755 136.209 289.223Z" fill="#010002"/>
<path id="Vector_36" d="M142.859 280.902V289.219C142.859 290.754 144.164 291.998 145.769 291.998C147.374 291.998 148.675 290.758 148.675 289.219V280.902C148.675 279.368 147.375 278.128 145.769 278.128C144.163 278.128 142.859 279.368 142.859 280.902Z" fill="#010002"/>
<path id="Vector_37" d="M155.325 280.902V289.219C155.325 290.754 156.625 291.998 158.231 291.998C159.837 291.998 161.146 290.758 161.146 289.219V280.902C161.146 279.368 159.837 278.128 158.231 278.128C156.625 278.128 155.325 279.368 155.325 280.902Z" fill="#010002"/>
<path id="Vector_38" d="M167.791 280.902V289.219C167.791 290.754 169.091 291.998 170.697 291.998C172.307 291.998 173.612 290.758 173.612 289.219V280.902C173.607 279.368 172.303 278.128 170.697 278.128C169.091 278.128 167.791 279.368 167.791 280.902Z" fill="#010002"/>
</g>
<g id="Group_7">
<path id="Vector_39" d="M111.919 235.946H120.641C122.247 235.946 123.548 234.698 123.548 233.171C123.548 231.644 122.247 230.397 120.638 230.397H111.915C110.305 230.396 109 231.64 109 233.17C109 234.701 110.305 235.946 111.919 235.946Z" fill="#010002"/>
<path id="Vector_40" d="M120.637 242.278H111.914C110.305 242.278 109 243.522 109 245.049C109 246.576 110.3 247.823 111.914 247.823H120.637C122.246 247.823 123.547 246.579 123.547 245.049C123.548 243.519 122.246 242.278 120.637 242.278Z" fill="#010002"/>
<path id="Vector_41" d="M120.637 254.165H111.914C110.305 254.165 109 255.409 109 256.939C109 258.474 110.3 259.718 111.914 259.718H120.637C122.246 259.718 123.547 258.474 123.547 256.939C123.548 255.412 122.246 254.165 120.637 254.165Z" fill="#010002"/>
<path id="Vector_42" d="M120.637 266.055H111.914C110.305 266.055 109 267.295 109 268.827C109 270.358 110.3 271.601 111.914 271.601H120.637C122.246 271.597 123.547 270.353 123.547 268.827C123.547 267.3 122.246 266.055 120.637 266.055Z" fill="#010002"/>
</g>
</g>
</g>
</g>
<path id="ESP8266 NodeMCU" d="M95.877 313.687H91.9395V316.353H96.5605V318H89.8887V308.047H96.5469V309.708H91.9395V312.08H95.877V313.687ZM102.925 315.389C102.925 315.001 102.788 314.705 102.515 314.5C102.241 314.29 101.749 314.072 101.038 313.844C100.327 313.611 99.7643 313.383 99.3496 313.16C98.2194 312.549 97.6543 311.727 97.6543 310.692C97.6543 310.155 97.8047 309.676 98.1055 309.257C98.4108 308.833 98.846 308.503 99.4111 308.266C99.9808 308.029 100.619 307.91 101.325 307.91C102.036 307.91 102.67 308.04 103.226 308.3C103.782 308.555 104.212 308.917 104.518 309.387C104.827 309.856 104.982 310.389 104.982 310.986H102.932C102.932 310.531 102.788 310.177 102.501 309.927C102.214 309.672 101.811 309.544 101.291 309.544C100.79 309.544 100.4 309.651 100.122 309.865C99.8441 310.075 99.7051 310.353 99.7051 310.699C99.7051 311.023 99.8669 311.294 100.19 311.513C100.519 311.731 100.999 311.937 101.633 312.128C102.799 312.479 103.649 312.914 104.183 313.434C104.716 313.953 104.982 314.6 104.982 315.375C104.982 316.236 104.657 316.913 104.005 317.405C103.353 317.893 102.476 318.137 101.373 318.137C100.607 318.137 99.9102 317.998 99.2812 317.72C98.6523 317.437 98.1715 317.052 97.8389 316.564C97.5107 316.077 97.3467 315.512 97.3467 314.869H99.4043C99.4043 315.967 100.061 316.517 101.373 316.517C101.861 316.517 102.241 316.419 102.515 316.223C102.788 316.022 102.925 315.744 102.925 315.389ZM108.428 314.493V318H106.377V308.047H110.26C111.007 308.047 111.663 308.184 112.229 308.457C112.798 308.73 113.236 309.12 113.541 309.626C113.846 310.127 113.999 310.699 113.999 311.342C113.999 312.317 113.664 313.087 112.994 313.652C112.329 314.213 111.406 314.493 110.226 314.493H108.428ZM108.428 312.832H110.26C110.802 312.832 111.215 312.704 111.497 312.449C111.784 312.194 111.928 311.829 111.928 311.355C111.928 310.868 111.784 310.474 111.497 310.173C111.21 309.872 110.813 309.717 110.308 309.708H108.428V312.832ZM121.689 310.692C121.689 311.175 121.569 311.604 121.327 311.978C121.086 312.351 120.753 312.65 120.329 312.873C120.812 313.105 121.195 313.427 121.478 313.837C121.76 314.243 121.901 314.721 121.901 315.272C121.901 316.157 121.601 316.856 120.999 317.371C120.397 317.882 119.579 318.137 118.545 318.137C117.51 318.137 116.69 317.879 116.084 317.364C115.478 316.849 115.175 316.152 115.175 315.272C115.175 314.721 115.316 314.24 115.599 313.83C115.881 313.42 116.262 313.101 116.74 312.873C116.316 312.65 115.984 312.351 115.742 311.978C115.505 311.604 115.387 311.175 115.387 310.692C115.387 309.845 115.669 309.17 116.234 308.669C116.799 308.163 117.567 307.91 118.538 307.91C119.504 307.91 120.27 308.161 120.835 308.662C121.405 309.159 121.689 309.836 121.689 310.692ZM119.919 315.129C119.919 314.696 119.794 314.35 119.543 314.09C119.292 313.83 118.955 313.7 118.531 313.7C118.112 313.7 117.777 313.83 117.526 314.09C117.276 314.345 117.15 314.691 117.15 315.129C117.15 315.553 117.273 315.895 117.52 316.154C117.766 316.414 118.107 316.544 118.545 316.544C118.973 316.544 119.308 316.419 119.55 316.168C119.796 315.917 119.919 315.571 119.919 315.129ZM119.714 310.788C119.714 310.401 119.611 310.091 119.406 309.858C119.201 309.621 118.912 309.503 118.538 309.503C118.169 309.503 117.882 309.617 117.677 309.845C117.472 310.073 117.369 310.387 117.369 310.788C117.369 311.185 117.472 311.504 117.677 311.745C117.882 311.987 118.171 312.107 118.545 312.107C118.919 312.107 119.206 311.987 119.406 311.745C119.611 311.504 119.714 311.185 119.714 310.788ZM130.063 318H123.241V316.646L126.461 313.215C126.903 312.732 127.229 312.31 127.438 311.95C127.653 311.59 127.76 311.248 127.76 310.925C127.76 310.483 127.648 310.136 127.425 309.886C127.201 309.631 126.882 309.503 126.468 309.503C126.021 309.503 125.668 309.658 125.408 309.968C125.153 310.273 125.025 310.676 125.025 311.178H123.043C123.043 310.572 123.187 310.018 123.474 309.517C123.765 309.015 124.175 308.623 124.704 308.341C125.233 308.054 125.832 307.91 126.502 307.91C127.527 307.91 128.323 308.156 128.888 308.648C129.457 309.141 129.742 309.836 129.742 310.733C129.742 311.226 129.615 311.727 129.359 312.237C129.104 312.748 128.667 313.342 128.047 314.021L125.784 316.407H130.063V318ZM136.64 307.944V309.571H136.448C135.555 309.585 134.835 309.817 134.288 310.269C133.746 310.72 133.42 311.346 133.311 312.148C133.839 311.611 134.507 311.342 135.313 311.342C136.179 311.342 136.868 311.652 137.378 312.271C137.888 312.891 138.144 313.707 138.144 314.719C138.144 315.366 138.002 315.951 137.72 316.476C137.442 317 137.045 317.408 136.53 317.699C136.02 317.991 135.441 318.137 134.794 318.137C133.746 318.137 132.898 317.772 132.251 317.043C131.608 316.314 131.287 315.341 131.287 314.124V313.413C131.287 312.333 131.49 311.381 131.896 310.556C132.306 309.726 132.891 309.086 133.652 308.635C134.418 308.179 135.304 307.949 136.312 307.944H136.64ZM134.712 312.928C134.393 312.928 134.104 313.012 133.844 313.181C133.584 313.345 133.393 313.563 133.27 313.837V314.438C133.27 315.099 133.399 315.617 133.659 315.99C133.919 316.359 134.284 316.544 134.753 316.544C135.177 316.544 135.519 316.378 135.778 316.045C136.043 315.708 136.175 315.272 136.175 314.739C136.175 314.197 136.043 313.759 135.778 313.427C135.514 313.094 135.159 312.928 134.712 312.928ZM144.679 307.944V309.571H144.487C143.594 309.585 142.874 309.817 142.327 310.269C141.785 310.72 141.459 311.346 141.35 312.148C141.878 311.611 142.546 311.342 143.353 311.342C144.218 311.342 144.907 311.652 145.417 312.271C145.927 312.891 146.183 313.707 146.183 314.719C146.183 315.366 146.041 315.951 145.759 316.476C145.481 317 145.084 317.408 144.569 317.699C144.059 317.991 143.48 318.137 142.833 318.137C141.785 318.137 140.937 317.772 140.29 317.043C139.647 316.314 139.326 315.341 139.326 314.124V313.413C139.326 312.333 139.529 311.381 139.935 310.556C140.345 309.726 140.93 309.086 141.691 308.635C142.457 308.179 143.343 307.949 144.351 307.944H144.679ZM142.751 312.928C142.432 312.928 142.143 313.012 141.883 313.181C141.623 313.345 141.432 313.563 141.309 313.837V314.438C141.309 315.099 141.438 315.617 141.698 315.99C141.958 316.359 142.323 316.544 142.792 316.544C143.216 316.544 143.558 316.378 143.817 316.045C144.082 315.708 144.214 315.272 144.214 314.739C144.214 314.197 144.082 313.759 143.817 313.427C143.553 313.094 143.198 312.928 142.751 312.928ZM159.15 318H157.1L153.107 311.451V318H151.057V308.047H153.107L157.106 314.609V308.047H159.15V318ZM160.504 314.233C160.504 313.5 160.645 312.846 160.928 312.271C161.21 311.697 161.616 311.253 162.145 310.938C162.678 310.624 163.295 310.467 163.997 310.467C164.995 310.467 165.809 310.772 166.438 311.383C167.071 311.993 167.424 312.823 167.497 313.871L167.511 314.377C167.511 315.512 167.194 316.423 166.561 317.111C165.927 317.795 165.077 318.137 164.011 318.137C162.944 318.137 162.092 317.795 161.454 317.111C160.821 316.428 160.504 315.498 160.504 314.322V314.233ZM162.479 314.377C162.479 315.079 162.612 315.617 162.876 315.99C163.14 316.359 163.519 316.544 164.011 316.544C164.489 316.544 164.863 316.362 165.132 315.997C165.401 315.628 165.535 315.04 165.535 314.233C165.535 313.545 165.401 313.012 165.132 312.634C164.863 312.256 164.485 312.066 163.997 312.066C163.514 312.066 163.14 312.256 162.876 312.634C162.612 313.007 162.479 313.589 162.479 314.377ZM168.42 314.247C168.42 313.094 168.677 312.176 169.192 311.492C169.712 310.809 170.421 310.467 171.318 310.467C172.038 310.467 172.633 310.736 173.103 311.273V307.5H175.085V318H173.301L173.205 317.214C172.713 317.829 172.079 318.137 171.305 318.137C170.434 318.137 169.735 317.795 169.206 317.111C168.682 316.423 168.42 315.468 168.42 314.247ZM170.396 314.391C170.396 315.083 170.516 315.614 170.758 315.983C170.999 316.353 171.35 316.537 171.811 316.537C172.421 316.537 172.852 316.28 173.103 315.765V312.846C172.856 312.331 172.43 312.073 171.824 312.073C170.872 312.073 170.396 312.846 170.396 314.391ZM180.021 318.137C178.936 318.137 178.052 317.804 177.368 317.139C176.689 316.473 176.35 315.587 176.35 314.479V314.288C176.35 313.545 176.493 312.882 176.78 312.299C177.067 311.711 177.473 311.26 177.997 310.945C178.526 310.626 179.127 310.467 179.802 310.467C180.813 310.467 181.609 310.786 182.188 311.424C182.771 312.062 183.062 312.966 183.062 314.138V314.944H178.353C178.416 315.427 178.608 315.815 178.927 316.106C179.25 316.398 179.658 316.544 180.15 316.544C180.911 316.544 181.506 316.268 181.935 315.717L182.905 316.804C182.609 317.223 182.208 317.551 181.702 317.788C181.196 318.021 180.636 318.137 180.021 318.137ZM179.795 312.066C179.403 312.066 179.084 312.199 178.838 312.463C178.596 312.727 178.441 313.105 178.373 313.598H181.121V313.44C181.112 313.003 180.993 312.666 180.766 312.429C180.538 312.187 180.214 312.066 179.795 312.066ZM187 308.047L189.557 315.266L192.1 308.047H194.793V318H192.735V315.279L192.94 310.583L190.254 318H188.846L186.166 310.59L186.371 315.279V318H184.32V308.047H187ZM204.397 314.685C204.32 315.756 203.924 316.599 203.208 317.214C202.497 317.829 201.558 318.137 200.392 318.137C199.116 318.137 198.111 317.708 197.377 316.852C196.648 315.99 196.283 314.81 196.283 313.311V312.702C196.283 311.745 196.452 310.902 196.789 310.173C197.126 309.444 197.607 308.885 198.231 308.498C198.86 308.106 199.59 307.91 200.419 307.91C201.567 307.91 202.493 308.218 203.194 308.833C203.896 309.448 204.302 310.312 204.411 311.424H202.36C202.31 310.781 202.13 310.316 201.82 310.029C201.515 309.738 201.048 309.592 200.419 309.592C199.735 309.592 199.223 309.838 198.881 310.33C198.544 310.818 198.37 311.576 198.361 312.606V313.358C198.361 314.434 198.523 315.22 198.847 315.717C199.175 316.214 199.69 316.462 200.392 316.462C201.025 316.462 201.497 316.318 201.807 316.031C202.121 315.74 202.301 315.291 202.347 314.685H204.397ZM213.277 308.047V314.603C213.277 315.692 212.936 316.553 212.252 317.187C211.573 317.82 210.643 318.137 209.463 318.137C208.301 318.137 207.378 317.829 206.694 317.214C206.011 316.599 205.662 315.753 205.648 314.678V308.047H207.699V314.616C207.699 315.268 207.854 315.744 208.164 316.045C208.479 316.341 208.911 316.489 209.463 316.489C210.616 316.489 211.201 315.883 211.22 314.671V308.047H213.277Z" fill="black"/>
</g>
<g id="usb-cable-usb-svgrepo-com 1" clip-path="url(#clip1_3:67)">
<g id="Group_8">
<g id="Group_9">
<g id="Group_10">
<path id="Vector_43" d="M66.6452 190.645H74.5807V188.581H67.9678V184.452H77.2258V188.581H75.9032V190.645H78.5484V182.387H66.6452V190.645Z" fill="black"/>
<path id="Vector_44" d="M69.2903 198.903H70.6129V200.968H71.9355V196.839H67.9677V200.968H69.2903V198.903Z" fill="black"/>
<path id="Vector_45" d="M74.5806 198.903H75.9032V200.968H77.2258V196.839H73.2581V200.968H74.5806V198.903Z" fill="black"/>
<path id="Vector_46" d="M103.677 153.484V142.129H89.129V153.484H87.8065V176.194C87.8065 179.039 89.2897 181.355 91.1129 181.355H94.4194V193.742C94.4194 197.158 92.6398 199.935 90.4516 199.935C88.2634 199.935 86.4839 197.158 86.4839 193.742V154.516C86.4839 147.686 82.9241 142.129 78.5484 142.129C74.1726 142.129 70.6129 147.686 70.6129 154.516V166.903H67.3065C65.4833 166.903 64 169.219 64 172.065V194.774H65.3226V206.129H79.871V194.774H81.1935V172.065C81.1935 169.219 79.7103 166.903 77.8871 166.903H74.5806V154.516C74.5806 151.1 76.3602 148.323 78.5484 148.323C80.7366 148.323 82.5161 151.1 82.5161 154.516V193.742C82.5161 200.572 86.0759 206.129 90.4516 206.129C94.8274 206.129 98.3871 200.572 98.3871 193.742V181.355H101.694C103.517 181.355 105 179.039 105 176.194V153.484H103.677ZM90.4516 144.194H102.355V153.484H90.4516V144.194ZM78.5484 204.065H66.6452V194.774H78.5484V204.065ZM77.8871 168.968C78.9809 168.968 79.871 170.357 79.871 172.065V192.71H65.3226V172.065C65.3226 170.357 66.2127 168.968 67.3065 168.968H77.8871ZM97.0645 193.742C97.0645 199.434 94.098 204.065 90.4516 204.065C86.8053 204.065 83.8387 199.434 83.8387 193.742V154.516C83.8387 149.963 81.4653 146.258 78.5484 146.258C75.6314 146.258 73.2581 149.963 73.2581 154.516V166.903H71.9355V154.516C71.9355 148.824 74.902 144.194 78.5484 144.194C82.1947 144.194 85.1613 148.824 85.1613 154.516V193.742C85.1613 198.295 87.5347 202 90.4516 202C93.3686 202 95.7419 198.295 95.7419 193.742V181.355H97.0645V193.742ZM103.677 176.194C103.677 177.901 102.787 179.29 101.694 179.29H91.1129C90.0191 179.29 89.129 177.901 89.129 176.194V155.548H103.677V176.194Z" fill="black"/>
<path id="Vector_47" d="M98.3871 163.806H91.7742V159.677H101.032V163.806H99.7097V165.871H102.355V157.613H90.4516V165.871H98.3871V163.806Z" fill="black"/>
<path id="Vector_48" d="M99.7097 149.355H98.3871V147.29H97.0645V151.419H101.032V147.29H99.7097V149.355Z" fill="black"/>
<path id="Vector_49" d="M94.4194 149.355H93.0968V147.29H91.7742V151.419H95.7419V147.29H94.4194V149.355Z" fill="black"/>
</g>
</g>
</g>
</g>
<g id="computer-pc-svgrepo-com 1" clip-path="url(#clip2_3:67)">
<g id="Group_11">
<g id="Group_12">
<path id="Vector_50" d="M199.233 13.4389H112.023C107.991 13.4389 104.713 16.3297 104.713 19.8819L104.694 71.5192C104.694 75.0722 107.972 77.9499 112.002 77.9499H140.797C140.795 77.9499 140.797 77.9866 140.797 77.9932V84.4826H135.301C134.79 84.4826 134.312 84.9277 134.312 85.3784V88.5656C134.312 89.0164 134.79 89.3822 135.301 89.3822H175.779C176.291 89.3822 176.925 89.0164 176.925 88.5656V85.3784C176.925 84.9277 176.291 84.4826 175.78 84.4826H170.44V77.9932C170.44 77.9866 170.381 77.9499 170.379 77.9499H199.214C203.245 77.9499 206.524 75.0722 206.524 71.52L206.545 19.8761C206.545 16.3231 203.265 13.4389 199.233 13.4389ZM155.603 73.1303C154.071 73.1303 152.824 72.032 152.824 70.6814C152.824 69.3307 154.071 68.2324 155.603 68.2324C157.134 68.2324 158.381 69.3307 158.381 70.6814C158.381 72.032 157.135 73.1303 155.603 73.1303ZM200.084 64.0678H111.153V19.1551H187.116H195.985H200.084V64.0678Z" fill="black"/>
</g>
</g>
<g id="Group_13">
<g id="Group_14">
<path id="Vector_51" d="M171.366 95.8913C171.366 94.5512 170.134 93.4652 168.614 93.4652H115.758C114.238 93.4652 113.006 94.5512 113.006 95.8913V115.538C113.006 116.878 114.238 117.964 115.758 117.964H168.615C170.135 117.964 171.367 116.878 171.367 115.538V95.8913H171.366ZM158.346 96.7315H159.419C160.443 96.7315 161.272 97.4624 161.272 98.3647C161.272 99.2663 160.443 99.9979 159.419 99.9979H158.346C157.323 99.9979 156.494 99.2663 156.494 98.3647C156.494 97.4624 157.323 96.7315 158.346 96.7315ZM141.674 96.7315H142.627C143.651 96.7315 144.48 97.4624 144.48 98.3647C144.48 99.2663 143.651 99.9979 142.627 99.9979H141.674C140.65 99.9979 139.821 99.2663 139.821 98.3647C139.821 97.4624 140.65 96.7315 141.674 96.7315ZM141.674 101.631H142.627C143.651 101.631 144.48 102.363 144.48 103.264C144.48 104.167 143.651 104.897 142.627 104.897H141.674C140.65 104.897 139.821 104.167 139.821 103.264C139.821 102.363 140.65 101.631 141.674 101.631ZM141.674 106.531H142.627C143.651 106.531 144.48 107.262 144.48 108.164C144.48 109.065 143.651 109.797 142.627 109.797H141.674C140.65 109.797 139.821 109.065 139.821 108.164C139.821 107.262 140.65 106.531 141.674 106.531ZM136.116 96.7315H137.135C138.157 96.7315 138.987 97.4624 138.987 98.3647C138.987 99.2663 138.157 99.9979 137.135 99.9979H136.116C135.093 99.9979 134.263 99.2663 134.263 98.3647C134.263 97.4624 135.094 96.7315 136.116 96.7315ZM136.116 101.631H137.135C138.157 101.631 138.987 102.363 138.987 103.264C138.987 104.167 138.157 104.897 137.135 104.897H136.116C135.093 104.897 134.263 104.167 134.263 103.264C134.263 102.363 135.094 101.631 136.116 101.631ZM136.116 106.531H137.135C138.157 106.531 138.987 107.262 138.987 108.164C138.987 109.065 138.157 109.797 137.135 109.797H136.116C135.093 109.797 134.263 109.065 134.263 108.164C134.263 107.262 135.094 106.531 136.116 106.531ZM119.443 96.7315H120.394C121.417 96.7315 122.247 97.4624 122.247 98.3647C122.247 99.2663 121.417 99.9979 120.394 99.9979H119.443C118.42 99.9979 117.59 99.2663 117.59 98.3647C117.59 97.4624 118.421 96.7315 119.443 96.7315ZM119.443 101.631H120.394C121.417 101.631 122.247 102.363 122.247 103.264C122.247 104.167 121.417 104.897 120.394 104.897H119.443C118.42 104.897 117.59 104.167 117.59 103.264C117.59 102.363 118.421 101.631 119.443 101.631ZM120.395 114.697H119.444C118.421 114.697 117.591 113.965 117.591 113.063C117.591 112.162 118.421 111.43 119.444 111.43H120.395C121.418 111.43 122.248 112.162 122.248 113.063C122.248 113.965 121.417 114.697 120.395 114.697ZM125.952 114.697H125.002C123.979 114.697 123.149 113.965 123.149 113.063C123.149 112.162 123.979 111.43 125.002 111.43H125.952C126.975 111.43 127.804 112.162 127.804 113.063C127.804 113.965 126.975 114.697 125.952 114.697ZM125.952 109.797H119.444C118.421 109.797 117.591 109.065 117.591 108.164C117.591 107.262 118.421 106.531 119.444 106.531H125.952C126.975 106.531 127.804 107.262 127.804 108.164C127.804 109.065 126.975 109.797 125.952 109.797ZM125.952 104.897H125.002C123.979 104.897 123.149 104.167 123.149 103.264C123.149 102.363 123.979 101.631 125.002 101.631H125.952C126.975 101.631 127.804 102.363 127.804 103.264C127.804 104.167 126.975 104.897 125.952 104.897ZM125.952 99.9979H125.002C123.979 99.9979 123.149 99.2663 123.149 98.3647C123.149 97.4624 123.979 96.7315 125.002 96.7315H125.952C126.975 96.7315 127.804 97.4624 127.804 98.3647C127.804 99.2663 126.975 99.9979 125.952 99.9979ZM131.51 114.697H130.56C129.537 114.697 128.708 113.965 128.708 113.063C128.708 112.162 129.537 111.43 130.56 111.43H131.51C132.533 111.43 133.363 112.162 133.363 113.063C133.363 113.965 132.532 114.697 131.51 114.697ZM131.51 109.797H130.56C129.537 109.797 128.708 109.065 128.708 108.164C128.708 107.262 129.537 106.531 130.56 106.531H131.51C132.533 106.531 133.363 107.262 133.363 108.164C133.363 109.065 132.532 109.797 131.51 109.797ZM131.51 104.897H130.56C129.537 104.897 128.708 104.167 128.708 103.264C128.708 102.363 129.537 101.631 130.56 101.631H131.51C132.533 101.631 133.363 102.363 133.363 103.264C133.363 104.167 132.532 104.897 131.51 104.897ZM131.51 99.9979H130.56C129.537 99.9979 128.708 99.2663 128.708 98.3647C128.708 97.4624 129.537 96.7315 130.56 96.7315H131.51C132.533 96.7315 133.363 97.4624 133.363 98.3647C133.363 99.2663 132.532 99.9979 131.51 99.9979ZM148.265 114.697H136.116C135.093 114.697 134.263 113.965 134.263 113.063C134.263 112.162 135.093 111.43 136.116 111.43H148.265C149.288 111.43 150.118 112.162 150.118 113.063C150.118 113.965 149.288 114.697 148.265 114.697ZM148.265 109.797H147.232C146.208 109.797 145.379 109.065 145.379 108.164C145.379 107.262 146.208 106.531 147.232 106.531H148.265C149.288 106.531 150.118 107.262 150.118 108.164C150.118 109.065 149.288 109.797 148.265 109.797ZM148.265 104.897H147.232C146.208 104.897 145.379 104.167 145.379 103.264C145.379 102.363 146.208 101.631 147.232 101.631H148.265C149.288 101.631 150.118 102.363 150.118 103.264C150.118 104.167 149.288 104.897 148.265 104.897ZM148.265 99.9979H147.232C146.208 99.9979 145.379 99.2663 145.379 98.3647C145.379 97.4624 146.208 96.7315 147.232 96.7315H148.265C149.288 96.7315 150.118 97.4624 150.118 98.3647C150.118 99.2663 149.288 99.9979 148.265 99.9979ZM153.9 114.697H152.789C151.767 114.697 150.937 113.965 150.937 113.063C150.937 112.162 151.767 111.43 152.789 111.43H153.9C154.924 111.43 155.753 112.162 155.753 113.063C155.753 113.965 154.924 114.697 153.9 114.697ZM153.9 109.797H152.789C151.767 109.797 150.937 109.065 150.937 108.164C150.937 107.262 151.767 106.531 152.789 106.531H153.9C154.924 106.531 155.753 107.262 155.753 108.164C155.753 109.065 154.924 109.797 153.9 109.797ZM153.9 104.897H152.789C151.767 104.897 150.937 104.167 150.937 103.264C150.937 102.363 151.767 101.631 152.789 101.631H153.9C154.924 101.631 155.753 102.363 155.753 103.264C155.753 104.167 154.924 104.897 153.9 104.897ZM153.9 99.9979H152.789C151.767 99.9979 150.937 99.2663 150.937 98.3647C150.937 97.4624 151.767 96.7315 152.789 96.7315H153.9C154.924 96.7315 155.753 97.4624 155.753 98.3647C155.753 99.2663 154.924 99.9979 153.9 99.9979ZM158.346 101.631H159.419C160.443 101.631 161.272 102.363 161.272 103.264C161.272 104.167 160.443 104.897 159.419 104.897H158.346C157.323 104.897 156.494 104.167 156.494 103.264C156.494 102.363 157.323 101.631 158.346 101.631ZM159.42 114.697H158.347C157.324 114.697 156.495 113.965 156.495 113.063C156.495 112.162 157.324 111.43 158.347 111.43H159.42C160.444 111.43 161.273 112.162 161.273 113.063C161.273 113.965 160.444 114.697 159.42 114.697ZM164.855 114.697H163.906C162.882 114.697 162.053 113.965 162.053 113.063C162.053 112.162 162.882 111.43 163.906 111.43H164.855C165.879 111.43 166.708 112.162 166.708 113.063C166.708 113.965 165.879 114.697 164.855 114.697ZM164.855 109.797H158.347C157.324 109.797 156.495 109.065 156.495 108.164C156.495 107.262 157.324 106.531 158.347 106.531H164.855C165.879 106.531 166.708 107.262 166.708 108.164C166.708 109.065 165.879 109.797 164.855 109.797ZM165.026 104.897H163.905C162.881 104.897 162.052 104.167 162.052 103.264C162.052 102.363 162.881 101.631 163.905 101.631H165.026C166.049 101.631 166.879 102.363 166.879 103.264C166.879 104.167 166.049 104.897 165.026 104.897ZM165.026 99.9979H163.905C162.881 99.9979 162.052 99.2663 162.052 98.3647C162.052 97.4624 162.881 96.7315 163.905 96.7315H165.026C166.049 96.7315 166.879 97.4624 166.879 98.3647C166.879 99.2663 166.049 99.9979 165.026 99.9979Z" fill="black"/>
</g>
</g>
<g id="Group_15">
<g id="Group_16">
<path id="Vector_52" d="M187.681 95.0984H186.247C182.046 95.0984 178.777 98.2137 178.777 102.058V111.105C178.777 114.951 182.046 117.962 186.247 117.962H187.681C191.969 117.962 195.452 114.886 195.452 111.105V102.058C195.452 98.2782 191.969 95.0984 187.681 95.0984ZM188.967 101.7C188.967 102.601 188.137 103.333 187.115 103.333C186.091 103.333 185.262 102.601 185.262 101.7V99.9302C185.262 99.0278 186.091 98.297 187.115 98.297C188.137 98.297 188.967 99.0278 188.967 99.9302V101.7Z" fill="black"/>
</g>
</g>
</g>
<g id="wifi-svgrepo-com 1" clip-path="url(#clip3_3:67)">
<g id="Group_17">
<path id="Vector_53" d="M254.045 166.297C244.486 157.038 231.755 151.94 218.201 151.94C204.646 151.94 191.916 157.037 182.356 166.297C181.84 166.797 181.84 167.605 182.356 168.105C182.872 168.604 183.706 168.604 184.222 168.105C193.283 159.328 205.351 154.495 218.201 154.495C231.05 154.495 243.118 159.328 252.179 168.103C252.436 168.353 252.774 168.478 253.112 168.478C253.45 168.478 253.788 168.353 254.045 168.103C254.561 167.605 254.561 166.796 254.045 166.297Z" fill="black"/>
<path id="Vector_54" d="M190.113 173.809C189.597 174.309 189.597 175.117 190.113 175.616C190.37 175.866 190.708 175.991 191.046 175.991C191.384 175.991 191.722 175.866 191.979 175.616C206.437 161.613 229.962 161.613 244.42 175.616C244.936 176.116 245.771 176.116 246.287 175.616C246.803 175.117 246.803 174.309 246.287 173.809C230.801 158.811 205.601 158.809 190.113 173.809Z" fill="black"/>
<path id="Vector_55" d="M218.2 173.18C210.513 173.18 203.294 176.073 197.872 181.323C197.356 181.823 197.356 182.631 197.872 183.131C198.388 183.63 199.222 183.63 199.738 183.131C204.662 178.363 211.218 175.737 218.2 175.737C225.183 175.737 231.739 178.363 236.663 183.131C236.921 183.38 237.258 183.505 237.596 183.505C237.934 183.505 238.272 183.38 238.529 183.131C239.045 182.631 239.045 181.823 238.529 181.323C233.108 176.073 225.888 173.18 218.2 173.18Z" fill="black"/>
<path id="Vector_56" d="M218.201 185.205C213.434 185.205 209.555 188.962 209.555 193.58C209.555 198.198 213.434 201.954 218.201 201.954C222.969 201.954 226.847 198.198 226.847 193.58C226.847 188.962 222.969 185.205 218.201 185.205ZM218.201 199.397C214.888 199.397 212.195 196.787 212.195 193.578C212.195 190.37 214.889 187.76 218.201 187.76C221.512 187.76 224.208 190.37 224.208 193.578C224.208 196.787 221.513 199.397 218.201 199.397Z" fill="black"/>
</g>
</g>
</g>
<g id="Fan">
<path id="DC FAN" d="M270.723 431.082V420.418H274.004C274.941 420.418 275.779 420.63 276.516 421.055C277.258 421.475 277.837 422.075 278.252 422.857C278.667 423.633 278.874 424.517 278.874 425.508V425.999C278.874 426.99 278.669 427.871 278.259 428.643C277.854 429.414 277.28 430.012 276.538 430.437C275.796 430.862 274.958 431.077 274.026 431.082H270.723ZM272.92 422.197V429.317H273.982C274.841 429.317 275.498 429.036 275.952 428.474C276.406 427.913 276.638 427.11 276.648 426.065V425.501C276.648 424.417 276.423 423.596 275.974 423.04C275.525 422.478 274.868 422.197 274.004 422.197H272.92ZM288.85 427.53C288.767 428.677 288.342 429.58 287.576 430.239C286.814 430.899 285.808 431.228 284.558 431.228C283.191 431.228 282.114 430.769 281.328 429.851C280.547 428.928 280.156 427.664 280.156 426.057V425.405C280.156 424.38 280.337 423.477 280.698 422.696C281.06 421.914 281.575 421.316 282.244 420.901C282.917 420.481 283.699 420.271 284.587 420.271C285.818 420.271 286.809 420.601 287.561 421.26C288.313 421.919 288.747 422.844 288.865 424.036H286.667C286.614 423.347 286.421 422.849 286.089 422.542C285.762 422.229 285.261 422.073 284.587 422.073C283.855 422.073 283.306 422.337 282.939 422.864C282.578 423.386 282.393 424.199 282.383 425.303V426.109C282.383 427.261 282.556 428.103 282.903 428.635C283.254 429.168 283.806 429.434 284.558 429.434C285.237 429.434 285.742 429.28 286.074 428.972C286.411 428.66 286.604 428.179 286.653 427.53H288.85ZM300.444 426.724H296.226V431.082H294.028V420.418H300.972V422.197H296.226V424.951H300.444V426.724ZM306.86 428.884H303.008L302.275 431.082H299.939L303.909 420.418H305.945L309.936 431.082H307.6L306.86 428.884ZM303.601 427.105H306.267L304.927 423.113L303.601 427.105ZM319.604 431.082H317.407L313.13 424.065V431.082H310.933V420.418H313.13L317.414 427.449V420.418H319.604V431.082Z" fill="black"/>
<g id="table-fan-svgrepo-com 1" clip-path="url(#clip4_3:67)">
<g id="Group_18">
<path id="Vector_57" d="M306.979 379.011C302.116 377.809 302.777 373.708 303.622 371.335C320.706 368.271 333.695 353.575 333.695 335.961C333.695 316.132 317.234 300 297 300C276.766 300 260.305 316.132 260.305 335.962C260.305 353.43 273.08 368.026 289.954 371.255C290.813 373.615 291.543 377.796 286.625 379.011C279.651 380.735 270.244 384.085 270.244 392.586C270.244 399.805 323.36 399.805 323.36 392.586C323.361 384.085 313.953 380.734 306.979 379.011ZM265.047 335.962C265.047 318.695 279.381 304.648 297 304.648C314.619 304.648 328.953 318.695 328.953 335.962C328.953 353.228 314.619 367.275 297 367.275C279.381 367.275 265.047 353.228 265.047 335.962ZM293.75 390.529C293.75 391.336 293.081 391.991 292.258 391.991C291.434 391.991 290.765 391.336 290.765 390.529V388.399C290.765 387.591 291.434 386.937 292.258 386.937C293.081 386.937 293.75 387.591 293.75 388.399V390.529ZM298.492 390.529C298.492 391.336 297.824 391.991 297 391.991C296.176 391.991 295.508 391.336 295.508 390.529V388.399C295.508 387.591 296.176 386.937 297 386.937C297.824 386.937 298.492 387.591 298.492 388.399V390.529ZM303.234 390.529C303.234 391.336 302.566 391.991 301.742 391.991C300.919 391.991 300.25 391.336 300.25 390.529V388.399C300.25 387.591 300.918 386.937 301.742 386.937C302.566 386.937 303.234 387.591 303.234 388.399V390.529Z" fill="black"/>
<g id="Blades">
<path id="Vector_58" d="M300.606 335.473C301.093 336.164 301.38 337.003 301.38 337.907C301.38 340.268 299.435 342.182 297.031 342.199C297.285 345.614 299.076 349.434 300.5 352.047C303.052 356.733 310.031 357.963 316.089 354.794C322.147 351.625 324.988 345.257 322.436 340.571C318.51 333.365 306.762 332.499 300.606 335.473Z" fill="black"/>
<path id="Vector_59" d="M293.411 335.452C294.203 334.342 295.514 333.615 297 333.615C298.49 333.615 299.803 334.345 300.594 335.458C303.557 334.145 306.418 331.724 308.389 329.857C312.286 326.166 311.577 319.251 306.804 314.413C302.033 309.574 295.005 308.644 291.108 312.335C285.005 318.115 287.576 329.738 292.347 334.576C292.689 334.923 293.045 335.211 293.411 335.452Z" fill="black"/>
<path id="Vector_60" d="M292.62 337.907C292.62 337.003 292.907 336.165 293.394 335.473C287.238 332.499 275.49 333.365 271.564 340.571C269.012 345.257 271.853 351.625 277.911 354.794C283.969 357.963 290.948 356.733 293.5 352.047C294.924 349.433 296.713 345.614 296.966 342.198C294.563 342.18 292.62 340.267 292.62 337.907Z" fill="black"/>
</g>
</g>
</g>
</g>
</g>
<defs>
<clipPath id="clip0_3:67">
<rect width="72.4625" height="68.6878" fill="white" transform="translate(391.122 29.8643)"/>
</clipPath>
<clipPath id="clip1_3:67">
<rect width="41" height="64" fill="white" transform="translate(64 138)"/>
</clipPath>
<clipPath id="clip2_3:67">
<rect width="118.575" height="104.525" fill="white" transform="translate(96.3318 13.4389)"/>
</clipPath>
<clipPath id="clip3_3:67">
<rect width="72.4625" height="70.181" fill="white" transform="translate(181.969 141.855)"/>
</clipPath>
<clipPath id="clip4_3:67">
<rect width="100" height="98" fill="white" transform="translate(247 300)"/>
</clipPath>
</defs>
</svg>
