<svg width="191" height="320" viewBox="0 0 191 320" fill="none" xmlns="http://www.w3.org/2000/svg">
<g id="Middle">
<g id="Middleware">
<g id="SocketIO">
<g id="logo 1" clip-path="url(#clip0_7:2)">
<path id="Vector" d="M96.7318 94.5265C116.848 94.5265 133.155 79.2982 133.155 60.5132C133.155 41.7282 116.848 26.4999 96.7318 26.4999C76.6156 26.4999 60.3082 41.7282 60.3082 60.5132C60.3082 79.2982 76.6156 94.5265 96.7318 94.5265Z" stroke="#010101" stroke-width="20"/>
<path id="Vector_2" d="M87.0306 58.6305C95.7617 51.9693 104.302 45.0771 113.224 38.6113C108.544 45.326 103.732 51.9514 99.0523 58.6657C95.0387 58.6836 91.0254 58.6836 87.0306 58.6302V58.6305ZM94.4112 62.3428C98.4437 62.3428 102.457 62.3428 106.471 62.3962C97.6829 69.0216 89.1803 75.9669 80.2399 82.4151C84.9194 75.7004 89.7317 69.0574 94.4112 62.3428Z" fill="#010101"/>
</g>
<g id="Vector_3">
<path d="M57.6404 126.77C57.6404 126.189 57.4207 125.744 56.9814 125.437C56.5421 125.122 55.7513 124.794 54.6091 124.452C53.4668 124.103 52.5626 123.762 51.8963 123.427C50.0804 122.51 49.1725 121.276 49.1725 119.724C49.1725 118.917 49.4141 118.199 49.8974 117.57C50.3879 116.934 51.0872 116.439 51.9951 116.083C52.9104 115.728 53.9354 115.55 55.0704 115.55C56.2126 115.55 57.2303 115.745 58.1236 116.134C59.0169 116.517 59.7088 117.061 60.1994 117.765C60.6973 118.469 60.9462 119.269 60.9462 120.165H57.6514C57.6514 119.481 57.4207 118.951 56.9594 118.575C56.4981 118.192 55.8501 118.001 55.0154 118.001C54.21 118.001 53.584 118.162 53.1373 118.483C52.6907 118.798 52.4674 119.215 52.4674 119.734C52.4674 120.22 52.7273 120.627 53.2472 120.955C53.7744 121.283 54.5468 121.591 55.5646 121.878C57.439 122.404 58.8046 123.057 59.6612 123.837C60.5179 124.616 60.9462 125.587 60.9462 126.75C60.9462 128.042 60.4227 129.057 59.3757 129.796C58.3286 130.527 56.9192 130.893 55.1472 130.893C53.9171 130.893 52.7969 130.685 51.7864 130.267C50.776 129.844 50.0035 129.266 49.469 128.534C48.9419 127.803 48.6783 126.955 48.6783 125.991H51.9841C51.9841 127.638 53.0385 128.462 55.1472 128.462C55.9307 128.462 56.5421 128.315 56.9814 128.021C57.4207 127.721 57.6404 127.303 57.6404 126.77Z" fill="black"/>
<path d="M62.4839 125.037C62.4839 123.936 62.7108 122.955 63.1648 122.093C63.6188 121.232 64.2704 120.565 65.1198 120.093C65.9764 119.622 66.9686 119.386 68.0962 119.386C69.6997 119.386 71.0066 119.844 72.0171 120.76C73.0348 121.676 73.6023 122.921 73.7194 124.493L73.7414 125.252C73.7414 126.955 73.2325 128.322 72.2148 129.355C71.197 130.38 69.8315 130.893 68.1181 130.893C66.4048 130.893 65.0356 130.38 64.0105 129.355C62.9927 128.329 62.4839 126.934 62.4839 125.17V125.037ZM65.6579 125.252C65.6579 126.305 65.8703 127.112 66.2949 127.673C66.7196 128.226 67.3273 128.503 68.1181 128.503C68.8869 128.503 69.4873 128.23 69.9193 127.683C70.3513 127.129 70.5673 126.247 70.5673 125.037C70.5673 124.004 70.3513 123.204 69.9193 122.637C69.4873 122.069 68.8796 121.786 68.0962 121.786C67.32 121.786 66.7196 122.069 66.2949 122.637C65.8703 123.198 65.6579 124.069 65.6579 125.252Z" fill="black"/>
<path d="M80.6387 128.503C81.2245 128.503 81.7004 128.353 82.0665 128.052C82.4326 127.751 82.623 127.351 82.6376 126.852H85.614C85.6067 127.604 85.387 128.295 84.955 128.924C84.523 129.546 83.9299 130.032 83.1758 130.38C82.4289 130.722 81.6016 130.893 80.6936 130.893C78.9949 130.893 77.655 130.391 76.6739 129.385C75.6927 128.373 75.2021 126.979 75.2021 125.201V125.006C75.2021 123.297 75.6891 121.933 76.6629 120.914C77.6367 119.895 78.973 119.386 80.6717 119.386C82.158 119.386 83.3478 119.782 84.2411 120.575C85.1417 121.362 85.5994 122.411 85.614 123.724H82.6376C82.623 123.15 82.4326 122.685 82.0665 122.329C81.7004 121.967 81.2171 121.786 80.6167 121.786C79.8772 121.786 79.3171 122.039 78.9364 122.545C78.5629 123.044 78.3762 123.857 78.3762 124.986V125.293C78.3762 126.435 78.5629 127.256 78.9364 127.755C79.3098 128.254 79.8772 128.503 80.6387 128.503Z" fill="black"/>
<path d="M91.7425 126.237L90.6003 127.303V130.688H87.4262V114.934H90.6003V123.662L91.2153 122.924L94.2576 119.591H98.0687L93.7743 124.216L98.4421 130.688H94.7958L91.7425 126.237Z" fill="black"/>
<path d="M104.691 130.893C102.949 130.893 101.528 130.394 100.43 129.396C99.3391 128.397 98.7936 127.068 98.7936 125.406V125.119C98.7936 124.004 99.0242 123.009 99.4855 122.134C99.9468 121.252 100.598 120.575 101.44 120.104C102.29 119.625 103.256 119.386 104.34 119.386C105.965 119.386 107.243 119.864 108.173 120.822C109.11 121.779 109.579 123.136 109.579 124.893V126.103H102.012C102.114 126.828 102.422 127.409 102.934 127.847C103.454 128.285 104.109 128.503 104.9 128.503C106.123 128.503 107.078 128.09 107.767 127.262L109.326 128.893C108.85 129.522 108.206 130.014 107.393 130.37C106.58 130.719 105.68 130.893 104.691 130.893ZM104.329 121.786C103.699 121.786 103.187 121.984 102.791 122.38C102.403 122.777 102.154 123.345 102.045 124.083H106.46V123.847C106.445 123.191 106.255 122.685 105.889 122.329C105.522 121.967 105.003 121.786 104.329 121.786Z" fill="black"/>
<path d="M115.191 116.863V119.591H117.223V121.765H115.191V127.303C115.191 127.714 115.275 128.008 115.444 128.185C115.612 128.363 115.934 128.452 116.41 128.452C116.762 128.452 117.073 128.428 117.344 128.38V130.626C116.721 130.804 116.081 130.893 115.422 130.893C113.196 130.893 112.061 129.844 112.017 127.744V121.765H110.282V119.591H112.017V116.863H115.191Z" fill="black"/>
<path d="M119.156 129.232C119.156 128.76 119.324 128.377 119.661 128.083C120.005 127.789 120.434 127.642 120.946 127.642C121.466 127.642 121.894 127.789 122.231 128.083C122.575 128.377 122.747 128.76 122.747 129.232C122.747 129.697 122.579 130.076 122.242 130.37C121.905 130.657 121.473 130.801 120.946 130.801C120.426 130.801 119.998 130.657 119.661 130.37C119.324 130.076 119.156 129.697 119.156 129.232Z" fill="black"/>
<path d="M129.249 130.688H125.954V115.755H129.249V130.688Z" fill="black"/>
<path d="M145.449 123.56C145.449 125.03 145.171 126.319 144.615 127.426C144.058 128.534 143.26 129.389 142.22 129.991C141.188 130.592 140.002 130.893 138.662 130.893C137.336 130.893 136.154 130.596 135.114 130.001C134.075 129.406 133.269 128.558 132.698 127.457C132.127 126.35 131.838 125.078 131.83 123.642V122.904C131.83 121.433 132.112 120.141 132.676 119.027C133.247 117.905 134.049 117.047 135.081 116.452C136.121 115.851 137.307 115.55 138.64 115.55C139.972 115.55 141.155 115.851 142.187 116.452C143.227 117.047 144.029 117.905 144.593 119.027C145.164 120.141 145.449 121.43 145.449 122.893V123.56ZM142.11 122.883C142.11 121.317 141.81 120.128 141.21 119.314C140.609 118.5 139.753 118.093 138.64 118.093C137.534 118.093 136.681 118.497 136.081 119.304C135.48 120.104 135.176 121.28 135.169 122.832V123.56C135.169 125.085 135.469 126.268 136.07 127.109C136.67 127.95 137.534 128.37 138.662 128.37C139.767 128.37 140.617 127.967 141.21 127.16C141.803 126.346 142.103 125.163 142.11 123.611V122.883Z" fill="black"/>
</g>
</g>
<rect id="Rectangle 2" x="1.31305" y="0.5" width="188.527" height="318.623" fill="#C4C4C4" fill-opacity="0.17" stroke="black" stroke-dasharray="10 10"/>
<g id="arduino-svgrepo-com 1">
<g id="Group">
<path id="Vector_4" d="M44.0345 270.648L38.3949 289.057H42.8327L43.8506 285.627H49.3519L50.3424 289.057H55.1682L49.529 270.648H44.0345ZM44.9652 281.924L46.6406 276.198L48.297 281.924H44.9652Z" fill="#00979C"/>
<path id="Vector_5" d="M65.7716 280.658C65.705 280.587 65.6371 280.52 65.5679 280.456C65.7067 280.404 65.842 280.348 65.9744 280.287C66.5115 280.041 66.982 279.71 67.373 279.308C67.7683 278.901 68.079 278.411 68.296 277.851C68.5108 277.298 68.62 276.663 68.62 275.964C68.62 275 68.4459 274.166 68.1039 273.485C67.758 272.796 67.2574 272.229 66.6168 271.799C65.995 271.382 65.2388 271.081 64.3686 270.905C63.5325 270.735 62.5906 270.648 61.5701 270.648H55.8131V289.057H60.2282V281.864H60.3592C60.8422 281.864 61.2448 281.97 61.5899 282.189C61.9323 282.406 62.1948 282.727 62.3938 283.17L65.0622 289.057H70.1991L66.9571 282.49C66.5643 281.693 66.1763 281.094 65.7716 280.658ZM63.8513 277.127C63.7237 277.37 63.5466 277.569 63.3099 277.736C63.0602 277.911 62.7504 278.046 62.3878 278.136C62.0049 278.232 61.5679 278.28 61.0884 278.28H60.2282V274.405H61.1984C62.209 274.405 62.9601 274.563 63.4306 274.877C63.8406 275.149 64.0399 275.609 64.0399 276.283C64.0399 276.609 63.9781 276.885 63.8513 277.127Z" fill="#00979C"/>
<path id="Vector_6" d="M83.1344 272.834C82.391 272.087 81.4534 271.528 80.3479 271.172C79.2702 270.825 78.0018 270.648 76.5782 270.648H70.7392V289.057H75.822C77.4621 289.057 78.8968 288.834 80.0857 288.393C81.2932 287.947 82.3016 287.299 83.0824 286.468C83.8618 285.639 84.4428 284.625 84.808 283.457C85.1664 282.313 85.3477 281.027 85.3477 279.633C85.3477 278.114 85.1659 276.782 84.8067 275.673C84.4398 274.537 83.8773 273.582 83.1344 272.834ZM79.5246 284.022C78.758 284.874 77.646 285.287 76.1249 285.287H75.1538V274.418H76.3582C77.2094 274.418 77.924 274.538 78.4813 274.776C79.0218 275.005 79.4399 275.33 79.7596 275.768C80.0862 276.216 80.3229 276.779 80.463 277.44C80.6104 278.138 80.6856 278.948 80.6856 279.846C80.6856 281.761 80.295 283.167 79.5246 284.022Z" fill="#00979C"/>
<path id="Vector_7" d="M95.9829 282.359C95.9829 282.994 95.9245 283.535 95.808 283.967C95.6997 284.371 95.5403 284.7 95.3332 284.946C95.1347 285.183 94.8919 285.35 94.5916 285.457C94.2646 285.574 93.8465 285.633 93.3481 285.633C92.8208 285.633 92.386 285.565 92.0556 285.432C91.738 285.303 91.4828 285.119 91.2748 284.869C91.066 284.618 90.9164 284.302 90.8301 283.93C90.7338 283.519 90.6853 283.036 90.6853 282.492V270.648H86.2707V282.691C86.2707 283.686 86.394 284.6 86.6363 285.406C86.8886 286.244 87.3045 286.968 87.873 287.557C88.4415 288.145 89.1857 288.601 90.085 288.909C90.959 289.21 92.0152 289.363 93.2239 289.363C94.3045 289.363 95.2963 289.21 96.1702 288.909C97.064 288.603 97.8344 288.138 98.4605 287.528C99.087 286.917 99.5729 286.148 99.9051 285.242C100.232 284.352 100.398 283.311 100.398 282.146V270.648H95.9829V282.359Z" fill="#00979C"/>
<path id="Vector_8" d="M102.655 274.351H106.617V285.327H102.655V289.057H115.049V285.327H111.087V274.351H115.049V270.648H102.655V274.351Z" fill="#00979C"/>
<path id="Vector_9" d="M127.334 281.138L122.399 270.648H117.402V289.057H121.514V278.368L126.475 289.057H131.447V270.648H127.334V281.138Z" fill="#00979C"/>
<path id="Vector_10" d="M145.739 272.826C144.45 271.187 142.518 270.356 139.997 270.356C138.918 270.356 137.889 270.547 136.939 270.924C135.975 271.306 135.124 271.901 134.407 272.693C133.697 273.478 133.134 274.489 132.733 275.695C132.336 276.885 132.135 278.313 132.135 279.939C132.135 282.943 132.774 285.279 134.034 286.885C135.323 288.529 137.255 289.363 139.776 289.363C140.855 289.363 141.885 289.171 142.835 288.795C143.799 288.412 144.651 287.817 145.366 287.026C146.075 286.241 146.639 285.231 147.041 284.024C147.437 282.834 147.638 281.406 147.638 279.779C147.638 276.767 146.999 274.428 145.739 272.826ZM142.833 282.391C142.707 283.071 142.51 283.643 142.247 284.094C141.998 284.523 141.69 284.838 141.305 285.055C140.922 285.271 140.444 285.381 139.887 285.381C138.783 285.381 138.014 284.97 137.535 284.126C137.009 283.198 136.743 281.736 136.743 279.779C136.743 278.861 136.809 278.035 136.94 277.328C137.067 276.649 137.265 276.078 137.532 275.627C137.785 275.196 138.094 274.88 138.477 274.663C138.855 274.447 139.329 274.338 139.887 274.338C140.999 274.338 141.77 274.748 142.244 275.591C142.766 276.519 143.031 277.982 143.031 279.939C143.031 280.86 142.965 281.685 142.833 282.391Z" fill="#00979C"/>
<path id="Vector_11" d="M141.26 217.084H142.044V219.143H142.599V217.084H143.389V216.572H141.26V217.084Z" fill="#00979C"/>
<path id="Vector_12" d="M145.322 216.572L144.786 218.325L144.232 216.572H143.507V219.143H144.03V217.501L144.548 219.143H145.025L145.516 217.543V219.143H146.036V216.572H145.322Z" fill="#00979C"/>
<path id="Vector_13" d="M119.759 266.32C112.76 266.32 106.776 263.96 101.51 259.134C98.2568 256.153 95.5747 252.501 93.107 248.704C90.6397 252.501 87.9572 256.153 84.7045 259.134C79.0459 264.32 72.5585 266.658 64.8748 266.281C50.222 266.218 38.321 254.654 38.321 240.449C38.321 226.205 50.2874 214.617 64.996 214.617C73.0449 214.617 79.8215 217.281 85.7112 222.76C88.5403 225.392 90.9285 228.445 93.107 231.639C95.2855 228.445 97.6741 225.392 100.503 222.76C106.393 217.281 113.169 214.617 121.218 214.617C135.927 214.617 147.893 226.205 147.893 240.449C147.893 254.654 135.992 266.218 121.339 266.281C120.807 266.307 120.28 266.32 119.759 266.32ZM98.4656 240.105C101.385 244.841 104.218 249.25 107.67 252.412C111.565 255.982 115.671 257.451 120.979 257.17L121.218 257.164C130.899 257.164 138.776 249.666 138.776 240.449C138.776 231.233 130.899 223.734 121.218 223.734C115.503 223.734 110.893 225.546 106.713 229.435C103.59 232.34 101.012 236.062 98.4656 240.105ZM64.996 223.734C55.3147 223.734 47.4381 231.233 47.4381 240.449C47.4381 249.666 55.3147 257.164 64.996 257.164L65.2353 257.17C70.5437 257.451 74.6489 255.982 78.5445 252.412C81.9957 249.25 84.8295 244.841 87.7484 240.105C85.202 236.062 82.6239 232.34 79.5018 229.435C75.3205 225.546 70.7113 223.734 64.996 223.734Z" fill="#00979C"/>
<path id="Vector_14" d="M122.424 237.136V232.192H117.278V237.136H112.334V242.257H117.278V247.237H122.424V242.257H127.368V237.136H122.424Z" fill="#00979C"/>
<path id="Vector_15" d="M57.5933 237.074H73.8428V242.356H57.5933V237.074Z" fill="#00979C"/>
</g>
</g>
</g>
<g id="Line 3" opacity="0.5" filter="url(#filter0_d_7:2)">
<path d="M92.813 138L84.1528 153H101.473L92.813 138ZM92.813 196.851L101.473 181.851H84.1528L92.813 196.851ZM91.313 151.5V183.351H94.313V151.5H91.313Z" fill="black"/>
</g>
</g>
<defs>
<filter id="filter0_d_7:2" x="80.1528" y="138" width="25.3205" height="66.8511" filterUnits="userSpaceOnUse" color-interpolation-filters="sRGB">
<feFlood flood-opacity="0" result="BackgroundImageFix"/>
<feColorMatrix in="SourceAlpha" type="matrix" values="0 0 0 0 0 0 0 0 0 0 0 0 0 0 0 0 0 0 127 0" result="hardAlpha"/>
<feOffset dy="4"/>
<feGaussianBlur stdDeviation="2"/>
<feComposite in2="hardAlpha" operator="out"/>
<feColorMatrix type="matrix" values="0 0 0 0 0 0 0 0 0 0 0 0 0 0 0 0 0 0 0.25 0"/>
<feBlend mode="normal" in2="BackgroundImageFix" result="effect1_dropShadow_7:2"/>
<feBlend mode="normal" in="SourceGraphic" in2="effect1_dropShadow_7:2" result="shape"/>
</filter>
<clipPath id="clip0_7:2">
<rect width="81.7932" height="76.3807" fill="white" transform="translate(55.8352 22.3229)"/>
</clipPath>
</defs>
</svg>
